<?xml version="1.0" encoding="UTF-8" standalone="no"?>
<svg width="21px" height="19px" viewBox="0 0 21 19" version="1.1" xmlns="http://www.w3.org/2000/svg" xmlns:xlink="http://www.w3.org/1999/xlink">
    <!-- Generator: Sketch 47.1 (45422) - http://www.bohemiancoding.com/sketch -->
    <title>Gallery</title>
    <desc>Created with Sketch.</desc>
    <defs></defs>
    <g id="Page-1" stroke="none" stroke-width="1" fill="none" fill-rule="evenodd">
        <g id="Message" transform="translate(-53.000000, -329.000000)">
            <g id="Gallery" transform="translate(54.000000, 330.000000)">
                <rect id="Rectangle-3" stroke="#9B9B9B" x="0" y="0" width="19" height="17" rx="4.8"></rect>
                <path d="M17.5306551,14.9907521 L11.8853055,6.05925748 L9.05267371,11.129186 C8.99013097,11.2384691 8.88325414,11.3129436 8.76054371,11.3299432 C8.63862496,11.3461333 8.51591452,11.3032295 8.42803802,11.2149935 L6.37600291,9.11594757 L2.2166775,15.8666553 C2.08525859,16.0471748 1.83746268,16.081174 1.66250135,15.9476057 C1.48754003,15.8132279 1.4527061,15.5598529 1.58333333,15.3809524 L6.01658009,8.25706299 C6.08466459,8.16316043 6.19074974,8.10487609 6.30554337,8.09597154 C6.42112868,8.090305 6.53196391,8.13078024 6.61271529,8.21334973 L8.62199967,10.2678729 L11.5306328,5.06113807 C11.6003006,4.93647433 11.7293445,4.85876187 11.8694719,4.85714286 C12.0135577,4.85714286 12.1418099,4.93080779 12.2138528,5.05223351 L18.2083333,14.5714286 C18.3207519,14.7624717 18.2613759,15.0109897 18.0753311,15.1267489 C18.011205,15.1672241 17.9399537,15.1858427 17.8694942,15.1858427 C17.7357002,15.1858427 17.6058647,15.1170348 17.5306551,14.9907521 Z" id="Fill-419" stroke="#979797" stroke-width="0.2" fill="#9B9B9B"></path>
                <path d="M6.72916667,3.23809524 C6.07445833,3.23809524 5.54166667,3.78290476 5.54166667,4.45238095 C5.54166667,5.12185714 6.07445833,5.66666667 6.72916667,5.66666667 C7.383875,5.66666667 7.91666667,5.12185714 7.91666667,4.45238095 C7.91666667,3.78290476 7.383875,3.23809524 6.72916667,3.23809524 L6.72916667,3.23809524 Z M6.72916667,6.47619048 C5.63745833,6.47619048 4.75,5.56790476 4.75,4.45238095 C4.75,3.33685714 5.63745833,2.42857143 6.72916667,2.42857143 C7.820875,2.42857143 8.70833333,3.33685714 8.70833333,4.45238095 C8.70833333,5.56790476 7.820875,6.47619048 6.72916667,6.47619048 L6.72916667,6.47619048 Z" id="Fill-420" stroke="#979797" stroke-width="0.2" fill="#9B9B9B"></path>
            </g>
        </g>
    </g>
</svg>