<?xml version="1.0" encoding="UTF-8" standalone="no"?>
<svg width="23px" height="25px" viewBox="0 0 23 25" version="1.1" xmlns="http://www.w3.org/2000/svg" xmlns:xlink="http://www.w3.org/1999/xlink">
    <!-- Generator: Sketch 47.1 (45422) - http://www.bohemiancoding.com/sketch -->
    <title>7H</title>
    <desc>Created with Sketch.</desc>
    <defs></defs>
    <g id="Page-1" stroke="none" stroke-width="1" fill="none" fill-rule="evenodd">
        <g id="My-Profile" transform="translate(-29.000000, -296.000000)" fill="#A2A2A2">
            <g id="Options" transform="translate(28.000000, 288.000000)">
                <g id="Edit-Profile" transform="translate(1.000000, 0.000000)">
                    <path d="M21.6332075,31.1886792 L0.905660377,31.1886792 C0.404528302,31.1886792 0,31.5932075 0,32.0943396 C0,32.5954717 0.404528302,33 0.905660377,33 L21.6332075,33 C22.1343396,33 22.5388679,32.5954717 22.5388679,32.0943396 C22.5388679,31.5932075 22.1343396,31.1886792 21.6332075,31.1886792 M4.85962264,23.0641509 L14.930566,12.9569811 L17.514717,15.5471698 L7.43169811,25.6362264 L4.85962264,25.6362264 L4.85962264,23.0641509 Z M17.6898113,10.1856604 L20.2860377,12.7818868 L18.8007547,14.2671698 L16.210566,11.6769811 L17.6898113,10.1856604 Z M3.95396226,27.4475472 L7.80603774,27.4475472 C8.04754717,27.4475472 8.27698113,27.3509434 8.44603774,27.1818868 L22.2060377,13.4218868 C22.3750943,13.2528302 22.4716981,13.0173585 22.4716981,12.7818868 C22.4716981,12.5403774 22.3750943,12.3109434 22.2060377,12.1418868 L18.3298113,8.26566038 C18.1607547,8.09660377 17.9313208,8 17.6898113,8 C17.4483019,8 17.2188679,8.09660377 17.0498113,8.26566038 L3.31396226,22.0498113 C3.14490566,22.2249057 3.04830189,22.4543396 3.04830189,22.6898113 L3.04830189,26.5418868 C3.04830189,27.0430189 3.45283019,27.4475472 3.95396226,27.4475472 L3.95396226,27.4475472 Z" id="7H"></path>
                </g>
            </g>
        </g>
    </g>
</svg>