<svg width="108px" height="399px" viewBox="0 0 108 399" version="1.1" xmlns="http://www.w3.org/2000/svg" xmlns:xlink="http://www.w3.org/1999/xlink">
    <!-- Generator: Sketch 47.1 (45422) - http://www.bohemiancoding.com/sketch -->
    <desc>Created with Sketch.</desc>
    <defs></defs>
    <g id="Page-1" stroke="none" stroke-width="1" fill="none" fill-rule="evenodd">
        <g id="Arrow" transform="translate(0.000000, -6.000000)" stroke="#979797" stroke-width="14">
            <path d="M53.5,18.5 L53.5,329.66073" id="Line-4" stroke-linecap="square"></path>
            <path d="M54,43.3643739 L54,110.435626 L90,81.6356261 L90,14.5643739 L54,43.3643739 Z" id="Rectangle-14"></path>
            <path d="M17,43.3643739 L17,110.435626 L53,81.6356261 L53,14.5643739 L17,43.3643739 Z" id="Rectangle-14" transform="translate(35.000000, 62.500000) scale(-1, 1) translate(-35.000000, -62.500000) "></path>
            <path d="M12.8578644,353.142136 L58.8198052,399.104076 L53.8700577,404.053824 L48.9203102,399.104076 L53.9350288,394.089358 L58.9497475,399.104076 L54,404.053824 L49.0502525,399.104076 L95.0121933,353.142136 C102.822679,345.33165 102.822679,332.66835 95.0121933,324.857864 C87.2017075,317.047379 74.5384079,317.047379 66.7279221,324.857864 L53.9350288,337.650758 L41.1421356,324.857864 C33.3316498,317.047379 20.6683502,317.047379 12.8578644,324.857864 C5.04737854,332.66835 5.04737854,345.33165 12.8578644,353.142136 Z" id="Combined-Shape"></path>
        </g>
    </g>
</svg>