<svg width="23px" height="24px" viewBox="0 0 23 24" version="1.1" xmlns="http://www.w3.org/2000/svg" xmlns:xlink="http://www.w3.org/1999/xlink">
    <!-- Generator: Sketch 47.1 (45422) - http://www.bohemiancoding.com/sketch -->
    <desc>Created with Sketch.</desc>
    <defs></defs>
    <g id="Symbols" stroke="none" stroke-width="1" fill="none" fill-rule="evenodd" stroke-linejoin="round">
        <g id="navigation-bar" transform="translate(-27.000000, -12.000000)" stroke="#A2A2A2" stroke-width="2">
            <path d="M37.037623,13.5008627 L28.4588909,20.4710826 C28.30999,20.5918648 28.223078,20.7739967 28.223078,20.9669926 L28.223078,34.0830458 C28.223078,34.4358065 28.5087375,34.7221051 28.8621373,34.7221051 L34.613671,34.7221051 C34.9670708,34.7221051 35.2527303,34.4358065 35.2527303,34.0830458 L35.2527303,25.7752748 C35.2527303,25.421875 35.5383898,25.1362155 35.8917896,25.1362155 L41.0042641,25.1362155 C41.3576639,25.1362155 41.6433234,25.421875 41.6433234,25.7752748 L41.6433234,34.0830458 C41.6433234,34.4358065 41.9289829,34.7221051 42.2823827,34.7221051 L48.0339164,34.7221051 C48.3873162,34.7221051 48.6729757,34.4358065 48.6729757,34.0830458 L48.6729757,20.9669926 C48.6729757,20.7739967 48.5860637,20.5918648 48.4371628,20.4710826 L39.8584307,13.5008627 C39.0366005,12.8330458 37.8594532,12.8330458 37.037623,13.5008627 Z" id="Page-1"></path>
        </g>
    </g>
</svg>