<svg width="95px" height="91px" viewBox="0 0 95 91" version="1.1" xmlns="http://www.w3.org/2000/svg" xmlns:xlink="http://www.w3.org/1999/xlink">
    <!-- Generator: Sketch 47.1 (45422) - http://www.bohemiancoding.com/sketch -->
    <desc>Created with Sketch.</desc>
    <defs></defs>
    <g id="Page-1" stroke="none" stroke-width="1" fill="none" fill-rule="evenodd">
        <g id="Spotlight" transform="translate(-133.000000, -126.000000)" stroke="#D41B30" stroke-width="3">
            <g id="Group-2" transform="translate(132.000000, 127.000000)">
                <g id="Group" transform="translate(86.357218, 9.560776) rotate(29.000000) translate(-86.357218, -9.560776) translate(77.922436, 3.275062)">
                    <path d="M5.86987578,-1.5 L10.9996894,-1.5 C12.4080156,-1.5 13.5496894,-0.358326112 13.5496894,1.05 L13.5496894,7.78571429 L3.31987578,7.78571429 L3.31987578,1.05 C3.31987578,-0.358326112 4.46154966,-1.5 5.86987578,-1.5 Z" id="Rectangle"></path>
                    <path d="M12.3966134,6.88095238 L16.1747099,9.39970624 C17.3465048,10.1809099 17.6631416,11.7641281 16.8819379,12.9359229 C16.4089993,13.6453244 15.6128124,14.0714286 14.7602156,14.0714286 L2.83902014,14.0714286 C1.43069403,14.0714286 0.289020137,12.9297547 0.289020137,11.5214286 C0.289020137,10.6688317 0.71512428,9.87264484 1.42452576,9.39970624 L5.20262231,6.88095238 L12.3966134,6.88095238 Z" id="Combined-Shape"></path>
                </g>
                <ellipse id="Oval-3" cx="48.5" cy="77.5238095" rx="27.4130435" ry="10.4761905"></ellipse>
                <path d="M23.1956522,73.3333333 L80.1304348,16.7619048" id="Line-2" stroke-linecap="square"></path>
                <path d="M75.9130435,75.4285714 L84.3478261,20.952381" id="Line-3" stroke-linecap="square"></path>
                <g id="Group" transform="translate(10.444175, 9.560776) scale(-1, 1) rotate(29.000000) translate(-10.444175, -9.560776) translate(2.009392, 3.275062)">
                    <path d="M5.86987578,-1.5 L10.9996894,-1.5 C12.4080156,-1.5 13.5496894,-0.358326112 13.5496894,1.05 L13.5496894,7.78571429 L3.31987578,7.78571429 L3.31987578,1.05 C3.31987578,-0.358326112 4.46154966,-1.5 5.86987578,-1.5 Z" id="Rectangle"></path>
                    <path d="M12.3966134,6.88095238 L16.1747099,9.39970624 C17.3465048,10.1809099 17.6631416,11.7641281 16.8819379,12.9359229 C16.4089993,13.6453244 15.6128124,14.0714286 14.7602156,14.0714286 L2.83902014,14.0714286 C1.43069403,14.0714286 0.289020137,12.9297547 0.289020137,11.5214286 C0.289020137,10.6688317 0.71512428,9.87264484 1.42452576,9.39970624 L5.20262231,6.88095238 L12.3966134,6.88095238 Z" id="Combined-Shape"></path>
                </g>
                <path d="M16.8695652,73.3333333 L73.8043478,16.7619048" id="Line-2" stroke-linecap="square" transform="translate(45.336957, 45.047619) scale(-1, 1) translate(-45.336957, -45.047619) "></path>
                <path d="M12.6521739,75.4285714 L21.0869565,20.952381" id="Line-3" stroke-linecap="square" transform="translate(16.869565, 48.190476) scale(-1, 1) translate(-16.869565, -48.190476) "></path>
            </g>
        </g>
    </g>
</svg>