<svg width="39px" height="34px" viewBox="0 0 39 34" version="1.1" xmlns="http://www.w3.org/2000/svg" xmlns:xlink="http://www.w3.org/1999/xlink">
    <!-- Generator: Sketch 47.1 (45422) - http://www.bohemiancoding.com/sketch -->
    <desc>Created with Sketch.</desc>
    <defs></defs>
    <g id="Symbols" stroke="none" stroke-width="1" fill="none" fill-rule="evenodd">
        <g id="navigation-bar" transform="translate(-232.000000, -5.000000)">
            <g id="Group-4" transform="translate(233.000000, 6.000000)">
                <g id="Message-Icon" transform="translate(0.000000, 7.000000)" stroke-linecap="round" stroke-width="2" stroke="#00C0FF" stroke-linejoin="round">
                    <g id="Group-28">
                        <path d="M24,0 C26.21,0 28,1.82045149 28,4.06804803 L28,16.2721921 C28,18.5197887 26.21,20.3402402 24,20.3402402 L22,20.3402402 L22,25 L16,20.3402402 L4,20.3402402 C1.79,20.3402402 1.77635684e-14,18.5197887 1.77635684e-14,16.2721921 L1.77635684e-14,4.06804803 C1.77635684e-14,1.82045149 1.79,0 4,0 L24,0 Z" id="Stroke-306" transform="translate(14.000000, 12.500000) scale(-1, 1) translate(-14.000000, -12.500000) "></path>
                    </g>
                    <g id="Group-32" transform="translate(4.728395, 5.434783)">
                        <path d="M0,1 L17.1851852,1" id="Line"></path>
                        <path d="M0,5 L8.59259259,5" id="Line"></path>
                    </g>
                </g>
                <circle id="Oval-2" stroke="#F5F5F5" stroke-width="2" fill="#E01E33" cx="28" cy="9" r="9"></circle>
                <text id="3" font-family=".AppleSystemUIFont" font-size="11" font-weight="normal" fill="#FFFFFF">
                    <tspan x="25" y="14">3</tspan>
                </text>
            </g>
        </g>
    </g>
</svg>