<svg width="28px" height="24px" viewBox="0 0 28 24" version="1.1" xmlns="http://www.w3.org/2000/svg" xmlns:xlink="http://www.w3.org/1999/xlink">
    <!-- Generator: Sketch 47.1 (45422) - http://www.bohemiancoding.com/sketch -->
    <desc>Created with Sketch.</desc>
    <defs></defs>
    <g id="Symbols" stroke="none" stroke-width="1" fill="none" fill-rule="evenodd">
        <g id="navigation-bar" transform="translate(-94.000000, -12.000000)">
            <g id="Settings" transform="translate(94.000000, 13.000000)">
                <path d="M8.46145385,2.53820769 L27.0776846,2.53820769 L8.46145385,2.53820769 Z" id="Fill-1" fill="#FFFFFF"></path>
                <path d="M8.46153846,2.53846154 L27.0769231,2.53846154" id="Stroke-2" stroke="#A2A2A2" stroke-width="2"></path>
                <path d="M-2.84217094e-14,2.53820769 L3.38461538,2.53820769 L-2.84217094e-14,2.53820769 Z" id="Fill-4" fill="#FFFFFF"></path>
                <path d="M-2.84217094e-14,2.53846154 L3.38461538,2.53846154" id="Stroke-5" stroke="#A2A2A2" stroke-width="2"></path>
                <path d="M23.6922231,10.9996615 L27.0776846,10.9996615 L23.6922231,10.9996615 Z" id="Fill-7" fill="#FFFFFF"></path>
                <path d="M23.6923077,11 L27.0769231,11" id="Stroke-8" stroke="#A2A2A2" stroke-width="2"></path>
                <path d="M-2.84217094e-14,10.9996615 L18.6153846,10.9996615 L-2.84217094e-14,10.9996615 Z" id="Fill-10" fill="#FFFFFF"></path>
                <path d="M-2.84217094e-14,11 L18.6153846,11" id="Stroke-11" stroke="#A2A2A2" stroke-width="2"></path>
                <path d="M13.5386308,19.4618769 L27.0770923,19.4618769 L13.5386308,19.4618769 Z" id="Fill-13" fill="#FFFFFF"></path>
                <path d="M13.5384615,19.4615385 L27.0769231,19.4615385" id="Stroke-14" stroke="#A2A2A2" stroke-width="2"></path>
                <path d="M-2.84217094e-14,19.4618769 L8.46153846,19.4618769 L-2.84217094e-14,19.4618769 Z" id="Fill-16" fill="#FFFFFF"></path>
                <g id="Group-25" transform="translate(-0.000000, 0.000000)" stroke="#A2A2A2" stroke-width="2">
                    <path d="M0,19.4615385 L8.46153846,19.4615385" id="Stroke-17"></path>
                    <path d="M8.46153846,2.53846154 C8.46153846,3.94053846 7.32515385,5.07692308 5.92307692,5.07692308 C4.521,5.07692308 3.38461538,3.94053846 3.38461538,2.53846154 C3.38461538,1.13638462 4.521,0 5.92307692,0 C7.32515385,0 8.46153846,1.13638462 8.46153846,2.53846154 Z" id="Stroke-19"></path>
                    <path d="M23.6923077,11 C23.6923077,12.4020769 22.5559231,13.5384615 21.1538462,13.5384615 C19.7517692,13.5384615 18.6153846,12.4020769 18.6153846,11 C18.6153846,9.59792308 19.7517692,8.46153846 21.1538462,8.46153846 C22.5559231,8.46153846 23.6923077,9.59792308 23.6923077,11 Z" id="Stroke-21"></path>
                    <path d="M13.5384615,19.4615385 C13.5384615,20.8636154 12.4020769,22 11,22 C9.59792308,22 8.46153846,20.8636154 8.46153846,19.4615385 C8.46153846,18.0594615 9.59792308,16.9230769 11,16.9230769 C12.4020769,16.9230769 13.5384615,18.0594615 13.5384615,19.4615385 Z" id="Stroke-23"></path>
                </g>
            </g>
        </g>
    </g>
</svg>