<svg width="75px" height="36px" viewBox="0 0 75 36" version="1.1" xmlns="http://www.w3.org/2000/svg" xmlns:xlink="http://www.w3.org/1999/xlink">
    <!-- Generator: Sketch 47.1 (45422) - http://www.bohemiancoding.com/sketch -->
    <desc>Created with Sketch.</desc>
    <defs>
        <filter x="-1.9%" y="-9.6%" width="103.9%" height="126.9%" filterUnits="objectBoundingBox" id="filter-1">
            <feOffset dx="0" dy="2" in="SourceAlpha" result="shadowOffsetOuter1"></feOffset>
            <feGaussianBlur stdDeviation="2" in="shadowOffsetOuter1" result="shadowBlurOuter1"></feGaussianBlur>
            <feColorMatrix values="0 0 0 0 0   0 0 0 0 0   0 0 0 0 0  0 0 0 0.16 0" type="matrix" in="shadowBlurOuter1" result="shadowMatrixOuter1"></feColorMatrix>
            <feMerge>
                <feMergeNode in="shadowMatrixOuter1"></feMergeNode>
                <feMergeNode in="SourceGraphic"></feMergeNode>
            </feMerge>
        </filter>
        <path d="M0.0745294405,0.957047222 C0.163526828,0.892130703 0.252765599,0.829511501 0.342245945,0.769189617 L0.342245976,0.195434596 C0.138229428,0.619455554 0.0777060161,0.939136022 0.0745294405,0.956409424 L0.0745294405,0.957047222 L0.0745294405,0.957047222 Z" id="path-2"></path>
        <path d="M0.0744299352,3.16208591 C1.00918236,2.24483043 1.97975667,1.7862027 2.9865509,1.7862027 L2.9865509,1.7862027 C3.60945384,1.7862027 4.04070964,1.98504829 4.28071633,2.38354127 L4.28071633,2.38354127 C4.51992697,2.7818338 4.64012933,3.42788153 4.64012933,4.3206822 L4.64012933,4.3206822 L4.64012933,12.2145716 C4.64012933,13.3495149 4.85585673,14.1942077 5.28731155,14.7492515 L5.28731155,14.7492515 C5.71856735,15.3042953 6.51520647,15.5821179 7.67782594,15.5821179 L7.67782594,15.5821179 C8.84024639,15.5821179 9.88883283,15.1960528 10.8235853,14.4233212 L10.8235853,14.4233212 C9.59370023,14.8945772 7.47543223,15.0948259 6.54087882,13.7608366 L6.54087882,13.7608366 C6.36475451,13.5094733 6.2322135,13.2514952 6.2322135,12.2145716 L6.2322135,12.2145716 L6.2322135,4.3206822 C6.2322135,3.10235205 6.0449446,2.22298147 5.64294335,1.55368164 L5.64294335,1.55368164 C5.33388001,1.04053172 4.77824263,0.182609208 3.18556142,0.182609208 L3.18556142,0.182609208 C0.469266811,0.182609208 0.0744299352,3.16208591 0.0744299352,3.16208591 L0.0744299352,3.16208591 Z" id="path-4"></path>
        <path d="M0.362843533,0.7692467 C0.273360668,0.829581249 0.184121771,0.89221397 0.0951270295,0.957144862 C0.0951270295,0.957144862 0.153148147,0.631512041 0.362843565,0.195550477 L0.362843565,0.769245667 L0.362843533,0.7692467 Z" id="path-6"></path>
        <path d="M0.0951270295,3.16208591 C1.02968044,2.24483043 2.00045377,1.7862027 3.00704899,1.7862027 L3.00704899,1.7862027 C3.62995192,1.7862027 4.06140673,1.98504829 4.30121441,2.38354127 L4.30121441,2.38354127 C4.54022605,2.7818338 4.66062741,3.42788153 4.66062741,4.3206822 L4.66062741,4.3206822 L4.66062741,12.2145716 C4.66062741,13.3495149 4.87655383,14.1942077 5.30780963,14.7492515 L5.30780963,14.7492515 C5.73906543,15.3042953 6.53570455,15.5821179 7.69852303,15.5821179 L7.69852303,15.5821179 C8.86074448,15.5821179 9.90952993,15.1960528 10.8440833,14.4233212 L10.8440833,14.4233212 C9.61419831,14.8945772 7.49593032,15.0948259 6.56137691,13.7608366 L6.56137691,13.7608366 C6.38545161,13.5094733 6.25271159,13.2514952 6.25271159,12.2145716 L6.25271159,12.2145716 L6.25271159,4.3206822 C6.25271159,3.10235205 6.06544269,2.22298147 5.66344143,1.55368164 L5.66344143,1.55368164 C5.35437809,1.04053172 4.79893973,0.182609208 3.2058605,0.182609208 L3.2058605,0.182609208 C0.489764894,0.182609208 0.0951270295,3.16208591 0.0951270295,3.16208591 L0.0951270295,3.16208591 Z" id="path-8"></path>
        <path d="M0.0805992614,12.4331414 L0.0805992614,4.11802807 C0.0805992614,3.67843959 0.150570235,3.25594375 0.279569981,2.86095524 L0.279569981,12.2138457 C1.39447689,10.9666431 2.86383911,9.01980265 3.97642924,6.33519652 C4.96511351,3.94965076 5.51895979,0.885384054 5.47318737,0.266597417 C5.24034506,0.216485121 4.85605575,0.162965188 4.37763445,0.121873105 C4.2632034,0.112051095 4.1497674,0.107240314 4.03712745,0.107240314 C2.29983061,0.107240314 0.803269762,1.25742185 0.279569981,2.86095524 L0.0805992614,12.4331414 Z" id="path-10"></path>
        <path d="M0.0805992614,4.11802807 L0.0805992614,12.4332617 C1.21476023,11.2002987 2.79629684,9.18277765 3.97642924,6.33519652 L3.97642924,6.33519652 C4.96511351,3.94965076 5.51895979,0.885384054 5.47318737,0.266597417 L5.47318737,0.266597417 C5.24034506,0.216485121 4.85605575,0.162965188 4.37763445,0.121873105 L4.37763445,0.121873105 C4.2632034,0.112051095 4.1497674,0.107240314 4.03712745,0.107240314 L4.03712745,0.107240314 C1.87189297,0.107240314 0.0805992614,1.89384391 0.0805992614,4.11802807 L0.0805992614,4.11802807 Z" id="path-12"></path>
        <path d="M0.437869001,0.0498287221 C0.278808849,0.459187422 0.189508942,0.841353462 0.170153996,1.19628074 C0.25973851,1.21510452 0.348979386,1.23316996 0.437870532,1.25048943 L0.437869001,0.0498287221 L0.437869001,0.0498287221 Z" id="path-14"></path>
        <path d="M0.655540659,1.84673835 C0.355631803,2.57096126 0.193637238,3.22282201 0.170153996,3.80212016 L0.170153996,3.80212016 C5.31994927,5.25778214 8.94213978,2.17848175 8.94213978,0.289649074 L8.94213978,0.289649074 C8.93139321,0.700169006 8.74412431,1.03211286 8.3486904,1.28548063 L8.3486904,1.28548063 C7.95345551,1.53904885 7.39602704,1.66573273 6.67720103,1.66573273 L6.67720103,1.66573273 C5.21487172,1.66573273 3.54955167,1.17122459 1.68004683,0.181206064 L1.68004683,0.181206064 C1.29635454,0.567471645 0.954852484,1.12251544 0.655540659,1.84673835 L0.655540659,1.84673835 Z" id="path-16"></path>
        <path d="M1.02908341,0.758900618 C0.380309107,1.3037215 0.0236822521,2.07545087 0.0236822521,2.93317294 L0.0236822521,2.93317294 C0.0236822521,3.85062886 0.463495506,5.11305783 2.55927531,5.91645817 L2.55927531,5.91645817 C4.22519239,6.55488883 5.9257373,7.06603425 7.54827009,7.83014655 L7.54827009,7.83014655 C8.25097624,8.16108815 8.95746359,8.70711173 9.45578594,9.31126558 L9.45578594,9.31126558 C9.74116703,9.65744133 9.97918361,10.0625491 10.0713255,10.5071454 L10.0713255,10.5071454 C10.080878,10.5532487 10.0874453,10.5985503 10.0916246,10.6432504 L10.0916246,10.6432504 C9.96405881,8.15788097 8.37277068,6.34802527 5.31875521,5.21428467 L5.31875521,5.21428467 L3.12565926,4.41790006 C2.11906404,4.03183492 1.61576643,3.53692588 1.61576643,2.93317294 L1.61576643,2.93317294 C1.61576643,2.54730825 1.75965103,2.23320438 2.04722124,1.99146266 L2.04722124,1.99146266 C2.33479144,1.75072319 2.74196697,1.62945143 3.26954386,1.62945143 L3.26954386,1.62945143 C4.6112728,1.62945143 6.26505024,2.07645312 8.23087618,2.96925379 L8.23087618,2.96925379 C8.23087618,2.96925379 6.86247983,0.025857945 3.26954386,0.025857945 L3.26954386,0.025857945 C2.36344896,0.025857945 1.60939809,0.272410444 1.02908341,0.758900618 L1.02908341,0.758900618 Z M10.099983,10.9717866 C10.099983,10.8589337 10.1021721,10.7522948 10.0916246,10.6432504 L10.0916246,10.6432504 C10.0971969,10.751493 10.099983,10.8609382 10.099983,10.9717866 L10.099983,10.9717866 Z" id="path-18"></path>
    </defs>
    <g id="Page-1" stroke="none" stroke-width="1" fill="none" fill-rule="evenodd">
        <g id="Home" transform="translate(-138.000000, -35.000000)">
            <g id="Header" filter="url(#filter-1)" transform="translate(0.000000, 24.000000)">
                <g id="Page-1" transform="translate(142.000000, 13.000000)">
                    <g id="Group-3" transform="translate(0.000000, 0.133098)" fill="#FEFEFE">
                        <path d="M15.1709502,14.7324539 L15.1709502,22.2641316 C15.1709502,23.8091939 15.4461818,25.004272 15.9978389,25.8489649 C15.0630865,26.6216965 14.0143011,27.0075611 12.8522786,27.0075611 C11.6894601,27.0075611 10.892821,26.729939 10.4615652,26.1748952 C10.0301104,25.619651 9.814383,24.7751586 9.814383,23.6400148 L9.814383,15.7463259 C9.814383,14.8535252 9.69418064,14.2074775 9.45497,13.809185 C9.21496331,13.410692 8.7837075,13.2116459 8.16060556,13.2116459 C7.15401034,13.2116459 6.18343603,13.6704741 5.24888261,14.5875291 L5.24888261,26.7179121 C4.50557832,26.8628368 3.64903703,26.935199 2.6782637,26.935199 C1.70768939,26.935199 0.814530165,26.8628368 -1.99010519e-05,26.7179121 L-1.99010519e-05,0.320959236 L0.251728409,0.0673910163 L2.33676165,0.0673910163 C3.39111939,0.0673910163 4.13999599,0.31514621 4.58359044,0.809654351 C5.02678687,1.30476384 5.24888261,2.14384413 5.24888261,3.32629388 L5.24888261,10.4233978 C6.87838077,9.04751454 8.50787892,8.35957294 10.1379741,8.35957294 C11.7674723,8.35957294 13.0140742,8.93887108 13.8767848,10.0976678 C14.7396944,11.2562641 15.1709502,12.8013264 15.1709502,14.7324539" id="Fill-1"></path>
                    </g>
                    <g id="Group-68" transform="translate(5.174274, 11.558702)">
                        <g id="Group-6" transform="translate(0.000000, 2.204941)">
                            <mask id="mask-3" fill="white">
                                <use xlink:href="#path-2"></use>
                            </mask>
                            <g id="Clip-5"></g>
                            <path d="M0.0745294405,-2.02247215 L0.0745294405,13.3770366 L0.0745294405,-2.02247215 Z" id="Fill-4" fill="#FEFEFE" mask="url(#mask-3)"></path>
                        </g>
                        <mask id="mask-5" fill="white">
                            <use xlink:href="#path-4"></use>
                        </mask>
                        <g id="Clip-8"></g>
                        <polygon id="Fill-7" fill="#FEFEFE" mask="url(#mask-5)" points="0.0744299352 15.5821179 0.319658282 15.5821179 0.319658282 0.182609208 0.0744299352 0.182609208"></polygon>
                        <polygon id="Fill-9" fill="#FCFCFC" mask="url(#mask-5)" points="0.256723573 15.5821179 0.50195192 15.5821179 0.50195192 0.182609208 0.256723573 0.182609208"></polygon>
                        <polygon id="Fill-10" fill="#FBFBFB" mask="url(#mask-5)" points="0.438818201 15.5821179 0.684046547 15.5821179 0.684046547 0.182609208 0.438818201 0.182609208"></polygon>
                        <polygon id="Fill-11" fill="#F9F9F9" mask="url(#mask-5)" points="0.621111839 15.5821179 0.866072469 15.5821179 0.866072469 0.182609208 0.621111839 0.182609208"></polygon>
                        <polygon id="Fill-12" fill="#F8F8F8" mask="url(#mask-5)" points="0.803206466 15.5821179 1.04843481 15.5821179 1.04843481 0.182609208 0.803206466 0.182609208"></polygon>
                        <polygon id="Fill-13" fill="#F7F7F7" mask="url(#mask-5)" points="0.985301094 15.5821179 1.23052944 15.5821179 1.23052944 0.182609208 0.985301094 0.182609208"></polygon>
                        <polygon id="Fill-14" fill="#F6F6F6" mask="url(#mask-5)" points="1.16759473 15.5821179 1.41282308 15.5821179 1.41282308 0.182609208 1.16759473 0.182609208"></polygon>
                        <polygon id="Fill-15" fill="#F5F5F6" mask="url(#mask-5)" points="1.34968936 15.5821179 1.59491771 15.5821179 1.59491771 0.182609208 1.34968936 0.182609208"></polygon>
                        <polygon id="Fill-16" fill="#F4F4F5" mask="url(#mask-5)" points="1.531983 15.5821179 1.77721134 15.5821179 1.77721134 0.182609208 1.531983 0.182609208"></polygon>
                        <polygon id="Fill-17" fill="#F3F3F4" mask="url(#mask-5)" points="1.71407763 15.5821179 1.95930597 15.5821179 1.95930597 0.182609208 1.71407763 0.182609208"></polygon>
                        <polygon id="Fill-18" fill="#F2F3F3" mask="url(#mask-5)" points="1.89637126 15.5821179 2.14159961 15.5821179 2.14159961 0.182609208 1.89637126 0.182609208"></polygon>
                        <polygon id="Fill-19" fill="#F1F2F2" mask="url(#mask-5)" points="2.0786649 15.5821179 2.32362553 15.5821179 2.32362553 0.182609208 2.0786649 0.182609208"></polygon>
                        <polygon id="Fill-20" fill="#F0F1F1" mask="url(#mask-5)" points="2.26056052 15.5821179 2.50578886 15.5821179 2.50578886 0.182609208 2.26056052 0.182609208"></polygon>
                        <polygon id="Fill-21" fill="#F0F0F1" mask="url(#mask-5)" points="2.44285416 15.5821179 2.6880825 15.5821179 2.6880825 0.182609208 2.44285416 0.182609208"></polygon>
                        <polygon id="Fill-22" fill="#EFEFF0" mask="url(#mask-5)" points="2.62494878 15.5821179 2.87017713 15.5821179 2.87017713 0.182609208 2.62494878 0.182609208"></polygon>
                        <polygon id="Fill-23" fill="#EEEFEF" mask="url(#mask-5)" points="2.80724242 15.5821179 3.05247077 15.5821179 3.05247077 0.182609208 2.80724242 0.182609208"></polygon>
                        <polygon id="Fill-24" fill="#EDEEEE" mask="url(#mask-5)" points="2.98953606 15.5821179 3.23476441 15.5821179 3.23476441 0.182609208 2.98953606 0.182609208"></polygon>
                        <polygon id="Fill-25" fill="#ECEDEE" mask="url(#mask-5)" points="3.17163069 15.5821179 3.41685903 15.5821179 3.41685903 0.182609208 3.17163069 0.182609208"></polygon>
                        <polygon id="Fill-26" fill="#ECECED" mask="url(#mask-5)" points="3.35392433 15.5821179 3.59888496 15.5821179 3.59888496 0.182609208 3.35392433 0.182609208"></polygon>
                        <polygon id="Fill-27" fill="#EBEBEC" mask="url(#mask-5)" points="3.53601895 15.5821179 3.7812473 15.5821179 3.7812473 0.182609208 3.53601895 0.182609208"></polygon>
                        <polygon id="Fill-28" fill="#EAEBEB" mask="url(#mask-5)" points="3.71811358 15.5821179 3.96334193 15.5821179 3.96334193 0.182609208 3.71811358 0.182609208"></polygon>
                        <polygon id="Fill-29" fill="#E9EAEB" mask="url(#mask-5)" points="3.90040722 15.5821179 4.14563557 15.5821179 4.14563557 0.182609208 3.90040722 0.182609208"></polygon>
                        <polygon id="Fill-30" fill="#E8E9EA" mask="url(#mask-5)" points="4.08250185 15.5821179 4.32773019 15.5821179 4.32773019 0.182609208 4.08250185 0.182609208"></polygon>
                        <polygon id="Fill-31" fill="#E7E8E9" mask="url(#mask-5)" points="4.26479548 15.5821179 4.51002383 15.5821179 4.51002383 0.182609208 4.26479548 0.182609208"></polygon>
                        <polygon id="Fill-32" fill="#E6E7E8" mask="url(#mask-5)" points="4.44689011 15.5821179 4.69211846 15.5821179 4.69211846 0.182609208 4.44689011 0.182609208"></polygon>
                        <polygon id="Fill-33" fill="#E5E6E7" mask="url(#mask-5)" points="4.62918375 15.5821179 4.87414438 15.5821179 4.87414438 0.182609208 4.62918375 0.182609208"></polygon>
                        <polygon id="Fill-34" fill="#E5E6E6" mask="url(#mask-5)" points="4.81127838 15.5821179 5.05650672 15.5821179 5.05650672 0.182609208 4.81127838 0.182609208"></polygon>
                        <polygon id="Fill-35" fill="#E4E5E6" mask="url(#mask-5)" points="4.99337301 15.5821179 5.23860135 15.5821179 5.23860135 0.182609208 4.99337301 0.182609208"></polygon>
                        <polygon id="Fill-36" fill="#E3E4E5" mask="url(#mask-5)" points="5.17566664 15.5821179 5.42089499 15.5821179 5.42089499 0.182609208 5.17566664 0.182609208"></polygon>
                        <polygon id="Fill-37" fill="#E2E3E4" mask="url(#mask-5)" points="5.35776127 15.5821179 5.60298962 15.5821179 5.60298962 0.182609208 5.35776127 0.182609208"></polygon>
                        <polygon id="Fill-38" fill="#E1E2E3" mask="url(#mask-5)" points="5.54005491 15.5821179 5.78528326 15.5821179 5.78528326 0.182609208 5.54005491 0.182609208"></polygon>
                        <polygon id="Fill-39" fill="#E0E1E3" mask="url(#mask-5)" points="5.72214954 15.5821179 5.96737788 15.5821179 5.96737788 0.182609208 5.72214954 0.182609208"></polygon>
                        <polygon id="Fill-40" fill="#E0E1E2" mask="url(#mask-5)" points="5.90444317 15.5821179 6.14967152 15.5821179 6.14967152 0.182609208 5.90444317 0.182609208"></polygon>
                        <polygon id="Fill-41" fill="#DFE0E1" mask="url(#mask-5)" points="6.08673681 15.5821179 6.33169744 15.5821179 6.33169744 0.182609208 6.08673681 0.182609208"></polygon>
                        <polygon id="Fill-42" fill="#DEDFE0" mask="url(#mask-5)" points="6.26883144 15.5821179 6.51405979 15.5821179 6.51405979 0.182609208 6.26883144 0.182609208"></polygon>
                        <polygon id="Fill-43" fill="#DDDEDF" mask="url(#mask-5)" points="6.45092607 15.5821179 6.69615441 15.5821179 6.69615441 0.182609208 6.45092607 0.182609208"></polygon>
                        <polygon id="Fill-44" fill="#DCDDDF" mask="url(#mask-5)" points="6.63321971 15.5821179 6.87844805 15.5821179 6.87844805 0.182609208 6.63321971 0.182609208"></polygon>
                        <polygon id="Fill-45" fill="#DBDDDE" mask="url(#mask-5)" points="6.81531433 15.5821179 7.06054268 15.5821179 7.06054268 0.182609208 6.81531433 0.182609208"></polygon>
                        <polygon id="Fill-46" fill="#DBDCDD" mask="url(#mask-5)" points="6.99760797 15.5821179 7.24283632 15.5821179 7.24283632 0.182609208 6.99760797 0.182609208"></polygon>
                        <polygon id="Fill-47" fill="#DADBDC" mask="url(#mask-5)" points="7.1797026 15.5821179 7.42493095 15.5821179 7.42493095 0.182609208 7.1797026 0.182609208"></polygon>
                        <polygon id="Fill-48" fill="#D9DADB" mask="url(#mask-5)" points="7.36199624 15.5821179 7.60695687 15.5821179 7.60695687 0.182609208 7.36199624 0.182609208"></polygon>
                        <polygon id="Fill-49" fill="#D8D9DB" mask="url(#mask-5)" points="7.54409086 15.5821179 7.78931921 15.5821179 7.78931921 0.182609208 7.54409086 0.182609208"></polygon>
                        <polygon id="Fill-50" fill="#D7D8DA" mask="url(#mask-5)" points="7.72618549 15.5821179 7.97141384 15.5821179 7.97141384 0.182609208 7.72618549 0.182609208"></polygon>
                        <polygon id="Fill-51" fill="#D6D8D9" mask="url(#mask-5)" points="7.90847913 15.5821179 8.15370748 15.5821179 8.15370748 0.182609208 7.90847913 0.182609208"></polygon>
                        <polygon id="Fill-52" fill="#D6D7D8" mask="url(#mask-5)" points="8.09057376 15.5821179 8.3358021 15.5821179 8.3358021 0.182609208 8.09057376 0.182609208"></polygon>
                        <polygon id="Fill-53" fill="#D5D6D8" mask="url(#mask-5)" points="8.2728674 15.5821179 8.51809574 15.5821179 8.51809574 0.182609208 8.2728674 0.182609208"></polygon>
                        <polygon id="Fill-54" fill="#D4D5D7" mask="url(#mask-5)" points="8.45496202 15.5821179 8.70019037 15.5821179 8.70019037 0.182609208 8.45496202 0.182609208"></polygon>
                        <polygon id="Fill-55" fill="#D3D5D6" mask="url(#mask-5)" points="8.63725566 15.5821179 8.88221629 15.5821179 8.88221629 0.182609208 8.63725566 0.182609208"></polygon>
                        <polygon id="Fill-56" fill="#D2D4D5" mask="url(#mask-5)" points="8.81935029 15.5821179 9.06457864 15.5821179 9.06457864 0.182609208 8.81935029 0.182609208"></polygon>
                        <polygon id="Fill-57" fill="#D1D3D4" mask="url(#mask-5)" points="9.00144492 15.5821179 9.24667326 15.5821179 9.24667326 0.182609208 9.00144492 0.182609208"></polygon>
                        <polygon id="Fill-58" fill="#D1D2D4" mask="url(#mask-5)" points="9.18373855 15.5821179 9.4289669 15.5821179 9.4289669 0.182609208 9.18373855 0.182609208"></polygon>
                        <polygon id="Fill-59" fill="#D0D1D3" mask="url(#mask-5)" points="9.36603219 15.5821179 9.61126054 15.5821179 9.61126054 0.182609208 9.36603219 0.182609208"></polygon>
                        <polygon id="Fill-60" fill="#CFD0D2" mask="url(#mask-5)" points="9.54812682 15.5821179 9.79335517 15.5821179 9.79335517 0.182609208 9.54812682 0.182609208"></polygon>
                        <polygon id="Fill-61" fill="#CED0D1" mask="url(#mask-5)" points="9.73042046 15.5821179 9.9756488 15.5821179 9.9756488 0.182609208 9.73042046 0.182609208"></polygon>
                        <polygon id="Fill-62" fill="#CDCFD1" mask="url(#mask-5)" points="9.91251509 15.5821179 10.1577434 15.5821179 10.1577434 0.182609208 9.91251509 0.182609208"></polygon>
                        <polygon id="Fill-63" fill="#CCCED0" mask="url(#mask-5)" points="10.0948087 15.5821179 10.3397694 15.5821179 10.3397694 0.182609208 10.0948087 0.182609208"></polygon>
                        <polygon id="Fill-64" fill="#CCCDCF" mask="url(#mask-5)" points="10.2769034 15.5821179 10.5221317 15.5821179 10.5221317 0.182609208 10.2769034 0.182609208"></polygon>
                        <polygon id="Fill-65" fill="#CBCCCE" mask="url(#mask-5)" points="10.458998 15.5821179 10.7042263 15.5821179 10.7042263 0.182609208 10.458998 0.182609208"></polygon>
                        <polygon id="Fill-66" fill="#CACCCD" mask="url(#mask-5)" points="10.6412916 15.5821179 10.88652 15.5821179 10.88652 0.182609208 10.6412916 0.182609208"></polygon>
                        <path d="M10.8235256,15.5820177 L10.8235256,0.182508984 L10.8235256,15.5820177 Z" id="Fill-67" fill="#CACCCD" mask="url(#mask-5)"></path>
                    </g>
                    <path d="M66.5362624,14.8655522 L66.5362624,22.3972299 C66.5362624,23.9422922 66.811494,25.1373702 67.3629522,25.9820631 C66.4283987,26.7547947 65.3796133,27.1406594 64.2175909,27.1406594 C63.0547724,27.1406594 62.2581333,26.8630373 61.8268775,26.3079935 C61.3954226,25.7527492 61.1796952,24.9082568 61.1796952,23.7731131 L61.1796952,15.8794241 C61.1796952,14.9866235 61.0592939,14.3405757 60.8200832,13.9422832 C60.5802755,13.5437902 60.1488207,13.3447442 59.5259178,13.3447442 C58.5193226,13.3447442 57.5487483,13.8035724 56.6141949,14.7206274 L56.6141949,26.8510103 C55.8708906,26.9959351 55.0143493,27.0682972 54.0435759,27.0682972 C53.0730016,27.0682972 52.1796434,26.9959351 51.3652923,26.8510103 L51.3652923,0.454057496 L51.6168416,0.200489276 L53.7020739,0.200489276 C54.7564316,0.200489276 55.5051092,0.448244469 55.9489027,0.942752611 C56.3920991,1.4378621 56.6141949,2.27694239 56.6141949,3.45939214 L56.6141949,10.556496 C58.243494,9.1806128 59.8731912,8.4926712 61.5032863,8.4926712 C63.1327845,8.4926712 64.3791874,9.07196934 65.242097,10.2307661 C66.1048076,11.3893624 66.5362624,12.9344247 66.5362624,14.8655522" id="Fill-69" fill="#FEFEFE"></path>
                    <g id="Group-135" transform="translate(56.518988, 11.558702)">
                        <g id="Group-73" transform="translate(0.000000, 2.204941)">
                            <mask id="mask-7" fill="white">
                                <use xlink:href="#path-6"></use>
                            </mask>
                            <g id="Clip-72"></g>
                            <path d="M0.0951270295,-2.02247215 L0.0951270295,13.3770366 L0.0951270295,-2.02247215 Z" id="Fill-71" fill="#FEFEFE" mask="url(#mask-7)"></path>
                        </g>
                        <mask id="mask-9" fill="white">
                            <use xlink:href="#path-8"></use>
                        </mask>
                        <g id="Clip-75"></g>
                        <polygon id="Fill-74" fill="#FEFEFE" mask="url(#mask-9)" points="0.0951270295 15.5821179 0.340087659 15.5821179 0.340087659 0.182609208 0.0951270295 0.182609208"></polygon>
                        <polygon id="Fill-76" fill="#FCFCFC" mask="url(#mask-9)" points="0.277221657 15.5821179 0.522182287 15.5821179 0.522182287 0.182609208 0.277221657 0.182609208"></polygon>
                        <polygon id="Fill-77" fill="#FBFBFB" mask="url(#mask-9)" points="0.459316285 15.5821179 0.704544631 15.5821179 0.704544631 0.182609208 0.459316285 0.182609208"></polygon>
                        <polygon id="Fill-78" fill="#F9F9F9" mask="url(#mask-9)" points="0.641609923 15.5821179 0.886570553 15.5821179 0.886570553 0.182609208 0.641609923 0.182609208"></polygon>
                        <polygon id="Fill-79" fill="#F8F8F8" mask="url(#mask-9)" points="0.82370455 15.5821179 1.0689329 15.5821179 1.0689329 0.182609208 0.82370455 0.182609208"></polygon>
                        <polygon id="Fill-80" fill="#F7F7F7" mask="url(#mask-9)" points="1.00599819 15.5821179 1.25095882 15.5821179 1.25095882 0.182609208 1.00599819 0.182609208"></polygon>
                        <polygon id="Fill-81" fill="#F6F6F6" mask="url(#mask-9)" points="1.18809282 15.5821179 1.43332116 15.5821179 1.43332116 0.182609208 1.18809282 0.182609208"></polygon>
                        <polygon id="Fill-82" fill="#F5F5F6" mask="url(#mask-9)" points="1.37038645 15.5821179 1.61534708 15.5821179 1.61534708 0.182609208 1.37038645 0.182609208"></polygon>
                        <polygon id="Fill-83" fill="#F4F4F5" mask="url(#mask-9)" points="1.55248108 15.5821179 1.79744171 15.5821179 1.79744171 0.182609208 1.55248108 0.182609208"></polygon>
                        <polygon id="Fill-84" fill="#F3F3F4" mask="url(#mask-9)" points="1.73457571 15.5821179 1.97980406 15.5821179 1.97980406 0.182609208 1.73457571 0.182609208"></polygon>
                        <polygon id="Fill-85" fill="#F2F3F3" mask="url(#mask-9)" points="1.91686935 15.5821179 2.16182998 15.5821179 2.16182998 0.182609208 1.91686935 0.182609208"></polygon>
                        <polygon id="Fill-86" fill="#F1F2F2" mask="url(#mask-9)" points="2.09896397 15.5821179 2.34419232 15.5821179 2.34419232 0.182609208 2.09896397 0.182609208"></polygon>
                        <polygon id="Fill-87" fill="#F0F1F1" mask="url(#mask-9)" points="2.28125761 15.5821179 2.52621824 15.5821179 2.52621824 0.182609208 2.28125761 0.182609208"></polygon>
                        <polygon id="Fill-88" fill="#F0F0F1" mask="url(#mask-9)" points="2.46335224 15.5821179 2.70858059 15.5821179 2.70858059 0.182609208 2.46335224 0.182609208"></polygon>
                        <polygon id="Fill-89" fill="#EFEFF0" mask="url(#mask-9)" points="2.64564588 15.5821179 2.89060651 15.5821179 2.89060651 0.182609208 2.64564588 0.182609208"></polygon>
                        <polygon id="Fill-90" fill="#EEEFEF" mask="url(#mask-9)" points="2.82793952 15.5821179 3.07290015 15.5821179 3.07290015 0.182609208 2.82793952 0.182609208"></polygon>
                        <polygon id="Fill-91" fill="#EDEEEE" mask="url(#mask-9)" points="3.01003414 15.5821179 3.25526249 15.5821179 3.25526249 0.182609208 3.01003414 0.182609208"></polygon>
                        <polygon id="Fill-92" fill="#ECEDEE" mask="url(#mask-9)" points="3.19232778 15.5821179 3.43728841 15.5821179 3.43728841 0.182609208 3.19232778 0.182609208"></polygon>
                        <polygon id="Fill-93" fill="#ECECED" mask="url(#mask-9)" points="3.37442241 15.5821179 3.61965076 15.5821179 3.61965076 0.182609208 3.37442241 0.182609208"></polygon>
                        <polygon id="Fill-94" fill="#EBEBEC" mask="url(#mask-9)" points="3.55671605 15.5821179 3.80167668 15.5821179 3.80167668 0.182609208 3.55671605 0.182609208"></polygon>
                        <polygon id="Fill-95" fill="#EAEBEB" mask="url(#mask-9)" points="3.73881068 15.5821179 3.98403902 15.5821179 3.98403902 0.182609208 3.73881068 0.182609208"></polygon>
                        <polygon id="Fill-96" fill="#E9EAEB" mask="url(#mask-9)" points="3.92110431 15.5821179 4.16606494 15.5821179 4.16606494 0.182609208 3.92110431 0.182609208"></polygon>
                        <polygon id="Fill-97" fill="#E8E9EA" mask="url(#mask-9)" points="4.10319894 15.5821179 4.34815957 15.5821179 4.34815957 0.182609208 4.10319894 0.182609208"></polygon>
                        <polygon id="Fill-98" fill="#E7E8E9" mask="url(#mask-9)" points="4.28529357 15.5821179 4.53052191 15.5821179 4.53052191 0.182609208 4.28529357 0.182609208"></polygon>
                        <polygon id="Fill-99" fill="#E6E7E8" mask="url(#mask-9)" points="4.46758721 15.5821179 4.71254784 15.5821179 4.71254784 0.182609208 4.46758721 0.182609208"></polygon>
                        <polygon id="Fill-100" fill="#E5E6E7" mask="url(#mask-9)" points="4.64968183 15.5821179 4.89491018 15.5821179 4.89491018 0.182609208 4.64968183 0.182609208"></polygon>
                        <polygon id="Fill-101" fill="#E5E6E6" mask="url(#mask-9)" points="4.83197547 15.5821179 5.0769361 15.5821179 5.0769361 0.182609208 4.83197547 0.182609208"></polygon>
                        <polygon id="Fill-102" fill="#E4E5E6" mask="url(#mask-9)" points="5.0140701 15.5821179 5.25929845 15.5821179 5.25929845 0.182609208 5.0140701 0.182609208"></polygon>
                        <polygon id="Fill-103" fill="#E3E4E5" mask="url(#mask-9)" points="5.19636374 15.5821179 5.44132437 15.5821179 5.44132437 0.182609208 5.19636374 0.182609208"></polygon>
                        <polygon id="Fill-104" fill="#E2E3E4" mask="url(#mask-9)" points="5.37845837 15.5821179 5.62368671 15.5821179 5.62368671 0.182609208 5.37845837 0.182609208"></polygon>
                        <polygon id="Fill-105" fill="#E1E2E3" mask="url(#mask-9)" points="5.560752 15.5821179 5.80571263 15.5821179 5.80571263 0.182609208 5.560752 0.182609208"></polygon>
                        <polygon id="Fill-106" fill="#E0E1E3" mask="url(#mask-9)" points="5.74284663 15.5821179 5.98780726 15.5821179 5.98780726 0.182609208 5.74284663 0.182609208"></polygon>
                        <polygon id="Fill-107" fill="#E0E1E2" mask="url(#mask-9)" points="5.92494126 15.5821179 6.1701696 15.5821179 6.1701696 0.182609208 5.92494126 0.182609208"></polygon>
                        <polygon id="Fill-108" fill="#DFE0E1" mask="url(#mask-9)" points="6.1072349 15.5821179 6.35219553 15.5821179 6.35219553 0.182609208 6.1072349 0.182609208"></polygon>
                        <polygon id="Fill-109" fill="#DEDFE0" mask="url(#mask-9)" points="6.28932952 15.5821179 6.53455787 15.5821179 6.53455787 0.182609208 6.28932952 0.182609208"></polygon>
                        <polygon id="Fill-110" fill="#DDDEDF" mask="url(#mask-9)" points="6.47162316 15.5821179 6.71658379 15.5821179 6.71658379 0.182609208 6.47162316 0.182609208"></polygon>
                        <polygon id="Fill-111" fill="#DCDDDF" mask="url(#mask-9)" points="6.65371779 15.5821179 6.89894614 15.5821179 6.89894614 0.182609208 6.65371779 0.182609208"></polygon>
                        <polygon id="Fill-112" fill="#DBDDDE" mask="url(#mask-9)" points="6.83601143 15.5821179 7.08097206 15.5821179 7.08097206 0.182609208 6.83601143 0.182609208"></polygon>
                        <polygon id="Fill-113" fill="#DBDCDD" mask="url(#mask-9)" points="7.01810606 15.5821179 7.26306669 15.5821179 7.26306669 0.182609208 7.01810606 0.182609208"></polygon>
                        <polygon id="Fill-114" fill="#DADBDC" mask="url(#mask-9)" points="7.20020068 15.5821179 7.44542903 15.5821179 7.44542903 0.182609208 7.20020068 0.182609208"></polygon>
                        <polygon id="Fill-115" fill="#D9DADB" mask="url(#mask-9)" points="7.38249432 15.5821179 7.62745495 15.5821179 7.62745495 0.182609208 7.38249432 0.182609208"></polygon>
                        <polygon id="Fill-116" fill="#D8D9DB" mask="url(#mask-9)" points="7.56458895 15.5821179 7.80981729 15.5821179 7.80981729 0.182609208 7.56458895 0.182609208"></polygon>
                        <polygon id="Fill-117" fill="#D7D8DA" mask="url(#mask-9)" points="7.74688259 15.5821179 7.99184322 15.5821179 7.99184322 0.182609208 7.74688259 0.182609208"></polygon>
                        <polygon id="Fill-118" fill="#D6D8D9" mask="url(#mask-9)" points="7.92897721 15.5821179 8.17420556 15.5821179 8.17420556 0.182609208 7.92897721 0.182609208"></polygon>
                        <polygon id="Fill-119" fill="#D6D7D8" mask="url(#mask-9)" points="8.11127085 15.5821179 8.35623148 15.5821179 8.35623148 0.182609208 8.11127085 0.182609208"></polygon>
                        <polygon id="Fill-120" fill="#D5D6D8" mask="url(#mask-9)" points="8.29336548 15.5821179 8.53832611 15.5821179 8.53832611 0.182609208 8.29336548 0.182609208"></polygon>
                        <polygon id="Fill-121" fill="#D4D5D7" mask="url(#mask-9)" points="8.47546011 15.5821179 8.72068845 15.5821179 8.72068845 0.182609208 8.47546011 0.182609208"></polygon>
                        <polygon id="Fill-122" fill="#D3D5D6" mask="url(#mask-9)" points="8.65775375 15.5821179 8.90271438 15.5821179 8.90271438 0.182609208 8.65775375 0.182609208"></polygon>
                        <polygon id="Fill-123" fill="#D2D4D5" mask="url(#mask-9)" points="8.83984837 15.5821179 9.08507672 15.5821179 9.08507672 0.182609208 8.83984837 0.182609208"></polygon>
                        <polygon id="Fill-124" fill="#D1D3D4" mask="url(#mask-9)" points="9.02214201 15.5821179 9.26710264 15.5821179 9.26710264 0.182609208 9.02214201 0.182609208"></polygon>
                        <polygon id="Fill-125" fill="#D1D2D4" mask="url(#mask-9)" points="9.20443565 15.5821179 9.449664 15.5821179 9.449664 0.182609208 9.20443565 0.182609208"></polygon>
                        <polygon id="Fill-126" fill="#D0D1D3" mask="url(#mask-9)" points="9.38672929 15.5821179 9.63168992 15.5821179 9.63168992 0.182609208 9.38672929 0.182609208"></polygon>
                        <polygon id="Fill-127" fill="#CFD0D2" mask="url(#mask-9)" points="9.56882391 15.5821179 9.81378454 15.5821179 9.81378454 0.182609208 9.56882391 0.182609208"></polygon>
                        <polygon id="Fill-128" fill="#CED0D1" mask="url(#mask-9)" points="9.75091854 15.5821179 9.99614689 15.5821179 9.99614689 0.182609208 9.75091854 0.182609208"></polygon>
                        <polygon id="Fill-129" fill="#CDCFD1" mask="url(#mask-9)" points="9.93321218 15.5821179 10.1781728 15.5821179 10.1781728 0.182609208 9.93321218 0.182609208"></polygon>
                        <polygon id="Fill-130" fill="#CCCED0" mask="url(#mask-9)" points="10.1153068 15.5821179 10.3605352 15.5821179 10.3605352 0.182609208 10.1153068 0.182609208"></polygon>
                        <polygon id="Fill-131" fill="#CCCDCF" mask="url(#mask-9)" points="10.2976004 15.5821179 10.5425611 15.5821179 10.5425611 0.182609208 10.2976004 0.182609208"></polygon>
                        <polygon id="Fill-132" fill="#CBCCCE" mask="url(#mask-9)" points="10.4796951 15.5821179 10.7249234 15.5821179 10.7249234 0.182609208 10.4796951 0.182609208"></polygon>
                        <polygon id="Fill-133" fill="#CACCCD" mask="url(#mask-9)" points="10.6619887 15.5821179 10.9069493 15.5821179 10.9069493 0.182609208 10.6619887 0.182609208"></polygon>
                        <path d="M10.8440236,15.5820177 L10.8440236,0.182508984 L10.8440236,15.5820177 Z" id="Fill-134" fill="#CACCCD" mask="url(#mask-9)"></path>
                    </g>
                    <path d="M17.6578056,20.8040597 L17.6578056,13.2361007 C17.6578056,11.7152928 17.3702354,10.532843 16.795095,9.68754879 C17.6812888,8.91521808 18.7183327,8.5289525 19.9046344,8.5289525 C21.0909361,8.5289525 21.9054862,8.80657462 22.3492796,9.36161842 C22.7924761,9.91706311 23.0143728,10.7501299 23.0143728,11.8602175 L23.0143728,19.7899873 C23.0143728,20.6833893 23.1339781,21.3290362 23.3737858,21.7273287 C23.6131955,22.1256212 24.0327096,22.3248677 24.6321293,22.3248677 C25.6622078,22.3248677 26.6329811,21.8782669 27.5440513,20.9850654 L27.5440513,12.6533949 C27.5440513,10.3291866 29.5019168,8.47262628 31.8022794,8.65403279 C32.2613967,8.69011364 32.6580247,8.74503672 32.9364404,8.81840112 L32.9364404,21.7092883 C32.9364404,23.0372641 33.2717731,23.9422922 33.9432346,24.4249738 C33.8471125,24.9082568 33.6313851,25.4089789 33.2960524,25.9277414 C32.9601226,26.4471052 32.6130483,26.8510103 32.2534363,27.1406594 C30.3357709,27.0682972 28.9697627,26.2236044 28.1552126,24.6061799 C26.3334703,26.3204213 24.5602865,27.1769407 22.8346663,27.1769407 C21.1090461,27.1769407 19.8146816,26.5918295 18.951971,25.4208054 C18.0890614,24.2501821 17.6578056,22.7113337 17.6578056,20.8040597" id="Fill-136" fill="#FEFEFE"></path>
                    <g id="Group-202" transform="translate(27.463452, 8.551964)">
                        <g id="Group-140">
                            <mask id="mask-11" fill="white">
                                <use xlink:href="#path-10"></use>
                            </mask>
                            <g id="Clip-139"></g>
                            <path d="M0.0805594593,-0.0774936552 L0.0805594593,12.4331414 L0.0805594593,-0.0774936552 Z" id="Fill-138" fill="#FEFEFE" mask="url(#mask-11)"></path>
                        </g>
                        <mask id="mask-13" fill="white">
                            <use xlink:href="#path-12"></use>
                        </mask>
                        <g id="Clip-142"></g>
                        <polygon id="Fill-141" fill="#FEFEFE" mask="url(#mask-13)" points="0.0805992614 12.4332617 0.203481151 12.4332617 0.203481151 -0.0773733857 0.0805992614 -0.0773733857"></polygon>
                        <polygon id="Fill-143" fill="#FCFCFC" mask="url(#mask-13)" points="0.172144101 12.4332617 0.295025991 12.4332617 0.295025991 -0.0773733857 0.172144101 -0.0773733857"></polygon>
                        <polygon id="Fill-144" fill="#FBFBFB" mask="url(#mask-13)" points="0.263489931 12.4332617 0.386371821 12.4332617 0.386371821 -0.0773733857 0.263489931 -0.0773733857"></polygon>
                        <polygon id="Fill-145" fill="#F9F9F9" mask="url(#mask-13)" points="0.355034771 12.4332617 0.477916661 12.4332617 0.477916661 -0.0773733857 0.355034771 -0.0773733857"></polygon>
                        <polygon id="Fill-146" fill="#F8F8F8" mask="url(#mask-13)" points="0.446380601 12.4332617 0.56926249 12.4332617 0.56926249 -0.0773733857 0.446380601 -0.0773733857"></polygon>
                        <polygon id="Fill-147" fill="#F7F7F7" mask="url(#mask-13)" points="0.537925441 12.4332617 0.66080733 12.4332617 0.66080733 -0.0773733857 0.537925441 -0.0773733857"></polygon>
                        <polygon id="Fill-148" fill="#F6F6F6" mask="url(#mask-13)" points="0.62927127 12.4332617 0.75215316 12.4332617 0.75215316 -0.0773733857 0.62927127 -0.0773733857"></polygon>
                        <polygon id="Fill-149" fill="#F5F5F6" mask="url(#mask-13)" points="0.72081611 12.4332617 0.843698 12.4332617 0.843698 -0.0773733857 0.72081611 -0.0773733857"></polygon>
                        <polygon id="Fill-150" fill="#F4F4F5" mask="url(#mask-13)" points="0.81216194 12.4332617 0.93504383 12.4332617 0.93504383 -0.0773733857 0.81216194 -0.0773733857"></polygon>
                        <polygon id="Fill-151" fill="#F3F3F4" mask="url(#mask-13)" points="0.903507769 12.4332617 1.02665738 12.4332617 1.02665738 -0.0773733857 0.903507769 -0.0773733857"></polygon>
                        <polygon id="Fill-152" fill="#F2F3F3" mask="url(#mask-13)" points="0.99505261 12.4332617 1.1179345 12.4332617 1.1179345 -0.0773733857 0.99505261 -0.0773733857"></polygon>
                        <polygon id="Fill-153" fill="#F1F2F2" mask="url(#mask-13)" points="1.08659745 12.4332617 1.20947934 12.4332617 1.20947934 -0.0773733857 1.08659745 -0.0773733857"></polygon>
                        <polygon id="Fill-154" fill="#F0F1F1" mask="url(#mask-13)" points="1.17794328 12.4332617 1.30082517 12.4332617 1.30082517 -0.0773733857 1.17794328 -0.0773733857"></polygon>
                        <polygon id="Fill-155" fill="#F0F0F1" mask="url(#mask-13)" points="1.26948812 12.4332617 1.39237001 12.4332617 1.39237001 -0.0773733857 1.26948812 -0.0773733857"></polygon>
                        <polygon id="Fill-156" fill="#EFEFF0" mask="url(#mask-13)" points="1.36083395 12.4332617 1.48371584 12.4332617 1.48371584 -0.0773733857 1.36083395 -0.0773733857"></polygon>
                        <polygon id="Fill-157" fill="#EEEFEF" mask="url(#mask-13)" points="1.45237879 12.4332617 1.57526068 12.4332617 1.57526068 -0.0773733857 1.45237879 -0.0773733857"></polygon>
                        <polygon id="Fill-158" fill="#EDEEEE" mask="url(#mask-13)" points="1.54372462 12.4332617 1.66660651 12.4332617 1.66660651 -0.0773733857 1.54372462 -0.0773733857"></polygon>
                        <polygon id="Fill-159" fill="#ECEDEE" mask="url(#mask-13)" points="1.63526946 12.4332617 1.75815135 12.4332617 1.75815135 -0.0773733857 1.63526946 -0.0773733857"></polygon>
                        <polygon id="Fill-160" fill="#ECECED" mask="url(#mask-13)" points="1.72661529 12.4332617 1.84949718 12.4332617 1.84949718 -0.0773733857 1.72661529 -0.0773733857"></polygon>
                        <polygon id="Fill-161" fill="#EBEBEC" mask="url(#mask-13)" points="1.81816013 12.4332617 1.94104202 12.4332617 1.94104202 -0.0773733857 1.81816013 -0.0773733857"></polygon>
                        <polygon id="Fill-162" fill="#EAEBEB" mask="url(#mask-13)" points="1.90950596 12.4332617 2.03238785 12.4332617 2.03238785 -0.0773733857 1.90950596 -0.0773733857"></polygon>
                        <polygon id="Fill-163" fill="#E9EAEB" mask="url(#mask-13)" points="2.0010508 12.4332617 2.12393269 12.4332617 2.12393269 -0.0773733857 2.0010508 -0.0773733857"></polygon>
                        <polygon id="Fill-164" fill="#E8E9EA" mask="url(#mask-13)" points="2.09239663 12.4332617 2.21527852 12.4332617 2.21527852 -0.0773733857 2.09239663 -0.0773733857"></polygon>
                        <polygon id="Fill-165" fill="#E7E8E9" mask="url(#mask-13)" points="2.18394147 12.4332617 2.30682336 12.4332617 2.30682336 -0.0773733857 2.18394147 -0.0773733857"></polygon>
                        <polygon id="Fill-166" fill="#E6E7E8" mask="url(#mask-13)" points="2.2752873 12.4332617 2.39816919 12.4332617 2.39816919 -0.0773733857 2.2752873 -0.0773733857"></polygon>
                        <polygon id="Fill-167" fill="#E5E6E7" mask="url(#mask-13)" points="2.36683214 12.4332617 2.48971403 12.4332617 2.48971403 -0.0773733857 2.36683214 -0.0773733857"></polygon>
                        <polygon id="Fill-168" fill="#E5E6E6" mask="url(#mask-13)" points="2.45817797 12.4332617 2.58105986 12.4332617 2.58105986 -0.0773733857 2.45817797 -0.0773733857"></polygon>
                        <polygon id="Fill-169" fill="#E4E5E6" mask="url(#mask-13)" points="2.54972281 12.4332617 2.6726047 12.4332617 2.6726047 -0.0773733857 2.54972281 -0.0773733857"></polygon>
                        <polygon id="Fill-170" fill="#E3E4E5" mask="url(#mask-13)" points="2.64106864 12.4332617 2.76395053 12.4332617 2.76395053 -0.0773733857 2.64106864 -0.0773733857"></polygon>
                        <polygon id="Fill-171" fill="#E2E3E4" mask="url(#mask-13)" points="2.73241447 12.4332617 2.85529636 12.4332617 2.85529636 -0.0773733857 2.73241447 -0.0773733857"></polygon>
                        <polygon id="Fill-172" fill="#E1E2E3" mask="url(#mask-13)" points="2.82395931 12.4332617 2.9468412 12.4332617 2.9468412 -0.0773733857 2.82395931 -0.0773733857"></polygon>
                        <polygon id="Fill-173" fill="#E0E1E3" mask="url(#mask-13)" points="2.91530514 12.4332617 3.03818703 12.4332617 3.03818703 -0.0773733857 2.91530514 -0.0773733857"></polygon>
                        <polygon id="Fill-174" fill="#E0E1E2" mask="url(#mask-13)" points="3.00684998 12.4332617 3.12973187 12.4332617 3.12973187 -0.0773733857 3.00684998 -0.0773733857"></polygon>
                        <polygon id="Fill-175" fill="#DFE0E1" mask="url(#mask-13)" points="3.09819581 12.4332617 3.22107769 12.4332617 3.22107769 -0.0773733857 3.09819581 -0.0773733857"></polygon>
                        <polygon id="Fill-176" fill="#DEDFE0" mask="url(#mask-13)" points="3.18974065 12.4332617 3.31262254 12.4332617 3.31262254 -0.0773733857 3.18974065 -0.0773733857"></polygon>
                        <polygon id="Fill-177" fill="#DDDEDF" mask="url(#mask-13)" points="3.28108647 12.4332617 3.40396836 12.4332617 3.40396836 -0.0773733857 3.28108647 -0.0773733857"></polygon>
                        <polygon id="Fill-178" fill="#DCDDDF" mask="url(#mask-13)" points="3.3724323 12.4332617 3.49558191 12.4332617 3.49558191 -0.0773733857 3.3724323 -0.0773733857"></polygon>
                        <polygon id="Fill-179" fill="#DBDDDE" mask="url(#mask-13)" points="3.46417615 12.4332617 3.58705804 12.4332617 3.58705804 -0.0773733857 3.46417615 -0.0773733857"></polygon>
                        <polygon id="Fill-180" fill="#DBDCDD" mask="url(#mask-13)" points="3.55552198 12.4332617 3.67840387 12.4332617 3.67840387 -0.0773733857 3.55552198 -0.0773733857"></polygon>
                        <polygon id="Fill-181" fill="#DADBDC" mask="url(#mask-13)" points="3.64706682 12.4332617 3.76994871 12.4332617 3.76994871 -0.0773733857 3.64706682 -0.0773733857"></polygon>
                        <polygon id="Fill-182" fill="#D9DADB" mask="url(#mask-13)" points="3.73841265 12.4332617 3.86129454 12.4332617 3.86129454 -0.0773733857 3.73841265 -0.0773733857"></polygon>
                        <polygon id="Fill-183" fill="#D8D9DB" mask="url(#mask-13)" points="3.82995749 12.4332617 3.95283938 12.4332617 3.95283938 -0.0773733857 3.82995749 -0.0773733857"></polygon>
                        <polygon id="Fill-184" fill="#D7D8DA" mask="url(#mask-13)" points="3.92130332 12.4332617 4.04418521 12.4332617 4.04418521 -0.0773733857 3.92130332 -0.0773733857"></polygon>
                        <polygon id="Fill-185" fill="#D6D8D9" mask="url(#mask-13)" points="4.01284816 12.4332617 4.13573005 12.4332617 4.13573005 -0.0773733857 4.01284816 -0.0773733857"></polygon>
                        <polygon id="Fill-186" fill="#D6D7D8" mask="url(#mask-13)" points="4.10419399 12.4332617 4.22707588 12.4332617 4.22707588 -0.0773733857 4.10419399 -0.0773733857"></polygon>
                        <polygon id="Fill-187" fill="#D5D6D8" mask="url(#mask-13)" points="4.19573883 12.4332617 4.31862072 12.4332617 4.31862072 -0.0773733857 4.19573883 -0.0773733857"></polygon>
                        <polygon id="Fill-188" fill="#D4D5D7" mask="url(#mask-13)" points="4.28708466 12.4332617 4.40996655 12.4332617 4.40996655 -0.0773733857 4.28708466 -0.0773733857"></polygon>
                        <polygon id="Fill-189" fill="#D3D5D6" mask="url(#mask-13)" points="4.37843049 12.4332617 4.50131238 12.4332617 4.50131238 -0.0773733857 4.37843049 -0.0773733857"></polygon>
                        <polygon id="Fill-190" fill="#D2D4D5" mask="url(#mask-13)" points="4.46997533 12.4332617 4.59285722 12.4332617 4.59285722 -0.0773733857 4.46997533 -0.0773733857"></polygon>
                        <polygon id="Fill-191" fill="#D1D3D4" mask="url(#mask-13)" points="4.56132116 12.4332617 4.68420305 12.4332617 4.68420305 -0.0773733857 4.56132116 -0.0773733857"></polygon>
                        <polygon id="Fill-192" fill="#D1D2D4" mask="url(#mask-13)" points="4.652866 12.4332617 4.77574789 12.4332617 4.77574789 -0.0773733857 4.652866 -0.0773733857"></polygon>
                        <polygon id="Fill-193" fill="#D0D1D3" mask="url(#mask-13)" points="4.74421183 12.4332617 4.86709372 12.4332617 4.86709372 -0.0773733857 4.74421183 -0.0773733857"></polygon>
                        <polygon id="Fill-194" fill="#CFD0D2" mask="url(#mask-13)" points="4.83575667 12.4332617 4.95863856 12.4332617 4.95863856 -0.0773733857 4.83575667 -0.0773733857"></polygon>
                        <polygon id="Fill-195" fill="#CED0D1" mask="url(#mask-13)" points="4.9271025 12.4332617 5.04998439 12.4332617 5.04998439 -0.0773733857 4.9271025 -0.0773733857"></polygon>
                        <polygon id="Fill-196" fill="#CDCFD1" mask="url(#mask-13)" points="5.01864734 12.4332617 5.14152923 12.4332617 5.14152923 -0.0773733857 5.01864734 -0.0773733857"></polygon>
                        <polygon id="Fill-197" fill="#CCCED0" mask="url(#mask-13)" points="5.10999317 12.4332617 5.23287506 12.4332617 5.23287506 -0.0773733857 5.10999317 -0.0773733857"></polygon>
                        <polygon id="Fill-198" fill="#CCCDCF" mask="url(#mask-13)" points="5.20153801 12.4332617 5.3244199 12.4332617 5.3244199 -0.0773733857 5.20153801 -0.0773733857"></polygon>
                        <polygon id="Fill-199" fill="#CBCCCE" mask="url(#mask-13)" points="5.29288384 12.4332617 5.41576573 12.4332617 5.41576573 -0.0773733857 5.29288384 -0.0773733857"></polygon>
                        <polygon id="Fill-200" fill="#CACCCD" mask="url(#mask-13)" points="5.38442868 12.4332617 5.50731057 12.4332617 5.50731057 -0.0773733857 5.38442868 -0.0773733857"></polygon>
                        <polygon id="Fill-201" fill="#CACCCD" mask="url(#mask-13)" points="5.47577451 12.4330612 5.533869 12.4330612 5.533869 -0.0775738349 5.47577451 -0.0775738349"></polygon>
                    </g>
                    <path d="M34.9969953,25.5837104 C35.0206776,25.0042118 35.1824731,24.3525515 35.482382,23.6283286 C35.7816938,22.9041057 36.1231959,22.3490619 36.5068882,21.9627964 C38.376194,22.9528149 40.0417131,23.447323 41.5040424,23.447323 C42.2228684,23.447323 42.7802968,23.3206391 43.1755317,23.0670709 C43.5709656,22.8137031 43.7689811,22.4819597 43.7689811,22.0714398 C43.7689811,21.2991091 43.1936417,20.707784 42.0433609,20.2970636 L40.0659923,19.5728407 C37.0462067,18.4629536 35.5363138,16.6641226 35.5363138,14.1775504 C35.5363138,12.3668929 36.1592168,10.9310754 37.4056197,9.86869472 C38.6516246,8.80671494 40.3177406,8.27532414 42.4025749,8.27532414 C43.4328523,8.27532414 44.5715906,8.42024891 45.8179934,8.70969753 C47.0637993,8.99954705 48.1066145,9.34973178 48.9456428,9.76005126 C48.9691261,10.4117116 48.8316098,11.1239075 48.5320989,11.8964387 C48.2321901,12.6691703 47.8670058,13.2121871 47.43575,13.5258901 C45.4701231,12.6330894 43.8165446,12.1858873 42.4746167,12.1858873 C41.9470398,12.1858873 41.5398643,12.3071591 41.2522941,12.548099 C40.9647239,12.7896403 40.8208392,13.1037441 40.8208392,13.4896088 C40.8208392,14.0933618 41.3241369,14.5882708 42.3307321,14.9741355 L44.523828,15.7707206 C47.7109815,16.9537716 49.3050558,18.8728722 49.3050558,21.5282225 C49.3050558,23.3150266 48.645734,24.7390176 47.3278863,25.8009974 C46.0094416,26.8629771 44.1518774,27.3941675 41.7555917,27.3941675 C39.3587089,27.3941675 37.1057108,26.7910159 34.9969953,25.5837104" id="Fill-203" fill="#FEFEFE"></path>
                    <g id="Group-269" transform="translate(34.826841, 21.781610)">
                        <g id="Group-207" transform="translate(0.000000, 2.605839)">
                            <mask id="mask-15" fill="white">
                                <use xlink:href="#path-14"></use>
                            </mask>
                            <g id="Clip-206"></g>
                            <path d="M0.170153996,-2.42473358 L0.170153996,2.6518425 L0.170153996,-2.42473358 Z" id="Fill-205" fill="#FEFEFE" mask="url(#mask-15)"></path>
                        </g>
                        <mask id="mask-17" fill="white">
                            <use xlink:href="#path-16"></use>
                        </mask>
                        <g id="Clip-209"></g>
                        <polygon id="Fill-208" fill="#FEFEFE" mask="url(#mask-17)" points="0.170153996 5.25778214 0.370138248 5.25778214 0.370138248 0.181206064 0.170153996 0.181206064"></polygon>
                        <polygon id="Fill-210" fill="#FCFCFC" mask="url(#mask-17)" points="0.318814856 5.25778214 0.518799108 5.25778214 0.518799108 0.181206064 0.318814856 0.181206064"></polygon>
                        <polygon id="Fill-211" fill="#FBFBFB" mask="url(#mask-17)" points="0.467475716 5.25778214 0.667459968 5.25778214 0.667459968 0.181206064 0.467475716 0.181206064"></polygon>
                        <polygon id="Fill-212" fill="#F9F9F9" mask="url(#mask-17)" points="0.616136576 5.25778214 0.816120828 5.25778214 0.816120828 0.181206064 0.616136576 0.181206064"></polygon>
                        <polygon id="Fill-213" fill="#F8F8F8" mask="url(#mask-17)" points="0.764797436 5.25778214 0.964781688 5.25778214 0.964781688 0.181206064 0.764797436 0.181206064"></polygon>
                        <polygon id="Fill-214" fill="#F7F7F7" mask="url(#mask-17)" points="0.913458296 5.25778214 1.11344255 5.25778214 1.11344255 0.181206064 0.913458296 0.181206064"></polygon>
                        <polygon id="Fill-215" fill="#F6F6F6" mask="url(#mask-17)" points="1.06211916 5.25778214 1.26210341 5.25778214 1.26210341 0.181206064 1.06211916 0.181206064"></polygon>
                        <polygon id="Fill-216" fill="#F5F5F6" mask="url(#mask-17)" points="1.21097903 5.25778214 1.41096328 5.25778214 1.41096328 0.181206064 1.21097903 0.181206064"></polygon>
                        <polygon id="Fill-217" fill="#F4F4F5" mask="url(#mask-17)" points="1.35963989 5.25778214 1.55962414 5.25778214 1.55962414 0.181206064 1.35963989 0.181206064"></polygon>
                        <polygon id="Fill-218" fill="#F3F3F4" mask="url(#mask-17)" points="1.50830075 5.25778214 1.708285 5.25778214 1.708285 0.181206064 1.50830075 0.181206064"></polygon>
                        <polygon id="Fill-219" fill="#F2F3F3" mask="url(#mask-17)" points="1.65696161 5.25778214 1.85694586 5.25778214 1.85694586 0.181206064 1.65696161 0.181206064"></polygon>
                        <polygon id="Fill-220" fill="#F1F2F2" mask="url(#mask-17)" points="1.80562247 5.25778214 2.00560672 5.25778214 2.00560672 0.181206064 1.80562247 0.181206064"></polygon>
                        <polygon id="Fill-221" fill="#F0F1F1" mask="url(#mask-17)" points="1.95428333 5.25778214 2.15426758 5.25778214 2.15426758 0.181206064 1.95428333 0.181206064"></polygon>
                        <polygon id="Fill-222" fill="#F0F0F1" mask="url(#mask-17)" points="2.10294419 5.25778214 2.30292844 5.25778214 2.30292844 0.181206064 2.10294419 0.181206064"></polygon>
                        <polygon id="Fill-223" fill="#EFEFF0" mask="url(#mask-17)" points="2.25160504 5.25778214 2.4515893 5.25778214 2.4515893 0.181206064 2.25160504 0.181206064"></polygon>
                        <polygon id="Fill-224" fill="#EEEFEF" mask="url(#mask-17)" points="2.4002659 5.25778214 2.60025016 5.25778214 2.60025016 0.181206064 2.4002659 0.181206064"></polygon>
                        <polygon id="Fill-225" fill="#EDEEEE" mask="url(#mask-17)" points="2.54892676 5.25778214 2.74891102 5.25778214 2.74891102 0.181206064 2.54892676 0.181206064"></polygon>
                        <polygon id="Fill-226" fill="#ECEDEE" mask="url(#mask-17)" points="2.69758762 5.25778214 2.89757188 5.25778214 2.89757188 0.181206064 2.69758762 0.181206064"></polygon>
                        <polygon id="Fill-227" fill="#ECECED" mask="url(#mask-17)" points="2.84624848 5.25778214 3.04623274 5.25778214 3.04623274 0.181206064 2.84624848 0.181206064"></polygon>
                        <polygon id="Fill-228" fill="#EBEBEC" mask="url(#mask-17)" points="2.99490934 5.25778214 3.1948936 5.25778214 3.1948936 0.181206064 2.99490934 0.181206064"></polygon>
                        <polygon id="Fill-229" fill="#EAEBEB" mask="url(#mask-17)" points="3.1435702 5.25778214 3.34355446 5.25778214 3.34355446 0.181206064 3.1435702 0.181206064"></polygon>
                        <polygon id="Fill-230" fill="#E9EAEB" mask="url(#mask-17)" points="3.29223106 5.25778214 3.49248303 5.25778214 3.49248303 0.181206064 3.29223106 0.181206064"></polygon>
                        <polygon id="Fill-231" fill="#E8E9EA" mask="url(#mask-17)" points="3.44109093 5.25778214 3.64107519 5.25778214 3.64107519 0.181206064 3.44109093 0.181206064"></polygon>
                        <polygon id="Fill-232" fill="#E7E8E9" mask="url(#mask-17)" points="3.58975179 5.25778214 3.78973605 5.25778214 3.78973605 0.181206064 3.58975179 0.181206064"></polygon>
                        <polygon id="Fill-233" fill="#E6E7E8" mask="url(#mask-17)" points="3.73841265 5.25778214 3.93839691 5.25778214 3.93839691 0.181206064 3.73841265 0.181206064"></polygon>
                        <polygon id="Fill-234" fill="#E5E6E7" mask="url(#mask-17)" points="3.88707351 5.25778214 4.08705777 5.25778214 4.08705777 0.181206064 3.88707351 0.181206064"></polygon>
                        <polygon id="Fill-235" fill="#E5E6E6" mask="url(#mask-17)" points="4.03573437 5.25778214 4.23571863 5.25778214 4.23571863 0.181206064 4.03573437 0.181206064"></polygon>
                        <polygon id="Fill-236" fill="#E4E5E6" mask="url(#mask-17)" points="4.18439523 5.25778214 4.38437949 5.25778214 4.38437949 0.181206064 4.18439523 0.181206064"></polygon>
                        <polygon id="Fill-237" fill="#E3E4E5" mask="url(#mask-17)" points="4.3332551 5.25778214 4.53323936 5.25778214 4.53323936 0.181206064 4.3332551 0.181206064"></polygon>
                        <polygon id="Fill-238" fill="#E2E3E4" mask="url(#mask-17)" points="4.48191596 5.25778214 4.68190022 5.25778214 4.68190022 0.181206064 4.48191596 0.181206064"></polygon>
                        <polygon id="Fill-239" fill="#E1E2E3" mask="url(#mask-17)" points="4.63057682 5.25778214 4.83056108 5.25778214 4.83056108 0.181206064 4.63057682 0.181206064"></polygon>
                        <polygon id="Fill-240" fill="#E0E1E3" mask="url(#mask-17)" points="4.77923768 5.25778214 4.97922194 5.25778214 4.97922194 0.181206064 4.77923768 0.181206064"></polygon>
                        <polygon id="Fill-241" fill="#E0E1E2" mask="url(#mask-17)" points="4.92789854 5.25778214 5.1278828 5.25778214 5.1278828 0.181206064 4.92789854 0.181206064"></polygon>
                        <polygon id="Fill-242" fill="#DFE0E1" mask="url(#mask-17)" points="5.0765594 5.25778214 5.27654366 5.25778214 5.27654366 0.181206064 5.0765594 0.181206064"></polygon>
                        <polygon id="Fill-243" fill="#DEDFE0" mask="url(#mask-17)" points="5.22522026 5.25778214 5.42520452 5.25778214 5.42520452 0.181206064 5.22522026 0.181206064"></polygon>
                        <polygon id="Fill-244" fill="#DDDEDF" mask="url(#mask-17)" points="5.37388112 5.25778214 5.57386538 5.25778214 5.57386538 0.181206064 5.37388112 0.181206064"></polygon>
                        <polygon id="Fill-245" fill="#DCDDDF" mask="url(#mask-17)" points="5.52254198 5.25778214 5.72252624 5.25778214 5.72252624 0.181206064 5.52254198 0.181206064"></polygon>
                        <polygon id="Fill-246" fill="#DBDDDE" mask="url(#mask-17)" points="5.67120284 5.25778214 5.87118709 5.25778214 5.87118709 0.181206064 5.67120284 0.181206064"></polygon>
                        <polygon id="Fill-247" fill="#DBDCDD" mask="url(#mask-17)" points="5.8198637 5.25778214 6.01984795 5.25778214 6.01984795 0.181206064 5.8198637 0.181206064"></polygon>
                        <polygon id="Fill-248" fill="#DADBDC" mask="url(#mask-17)" points="5.96852456 5.25778214 6.16850881 5.25778214 6.16850881 0.181206064 5.96852456 0.181206064"></polygon>
                        <polygon id="Fill-249" fill="#D9DADB" mask="url(#mask-17)" points="6.11718542 5.25778214 6.31716967 5.25778214 6.31716967 0.181206064 6.11718542 0.181206064"></polygon>
                        <polygon id="Fill-250" fill="#D8D9DB" mask="url(#mask-17)" points="6.26584628 5.25778214 6.46583053 5.25778214 6.46583053 0.181206064 6.26584628 0.181206064"></polygon>
                        <polygon id="Fill-251" fill="#D7D8DA" mask="url(#mask-17)" points="6.41450714 5.25778214 6.61449139 5.25778214 6.61449139 0.181206064 6.41450714 0.181206064"></polygon>
                        <polygon id="Fill-252" fill="#D6D8D9" mask="url(#mask-17)" points="6.56336701 5.25778214 6.76335126 5.25778214 6.76335126 0.181206064 6.56336701 0.181206064"></polygon>
                        <polygon id="Fill-253" fill="#D6D7D8" mask="url(#mask-17)" points="6.71202787 5.25778214 6.91201212 5.25778214 6.91201212 0.181206064 6.71202787 0.181206064"></polygon>
                        <polygon id="Fill-254" fill="#D5D6D8" mask="url(#mask-17)" points="6.86068873 5.25778214 7.06067298 5.25778214 7.06067298 0.181206064 6.86068873 0.181206064"></polygon>
                        <polygon id="Fill-255" fill="#D4D5D7" mask="url(#mask-17)" points="7.00934959 5.25778214 7.20933384 5.25778214 7.20933384 0.181206064 7.00934959 0.181206064"></polygon>
                        <polygon id="Fill-256" fill="#D3D5D6" mask="url(#mask-17)" points="7.15801045 5.25778214 7.3579947 5.25778214 7.3579947 0.181206064 7.15801045 0.181206064"></polygon>
                        <polygon id="Fill-257" fill="#D2D4D5" mask="url(#mask-17)" points="7.30667131 5.25778214 7.50665556 5.25778214 7.50665556 0.181206064 7.30667131 0.181206064"></polygon>
                        <polygon id="Fill-258" fill="#D1D3D4" mask="url(#mask-17)" points="7.45533217 5.25778214 7.65531642 5.25778214 7.65531642 0.181206064 7.45533217 0.181206064"></polygon>
                        <polygon id="Fill-259" fill="#D1D2D4" mask="url(#mask-17)" points="7.60399303 5.25778214 7.80397728 5.25778214 7.80397728 0.181206064 7.60399303 0.181206064"></polygon>
                        <polygon id="Fill-260" fill="#D0D1D3" mask="url(#mask-17)" points="7.75265389 5.25778214 7.95263814 5.25778214 7.95263814 0.181206064 7.75265389 0.181206064"></polygon>
                        <polygon id="Fill-261" fill="#CFD0D2" mask="url(#mask-17)" points="7.90131475 5.25778214 8.101299 5.25778214 8.101299 0.181206064 7.90131475 0.181206064"></polygon>
                        <polygon id="Fill-262" fill="#CED0D1" mask="url(#mask-17)" points="8.04997561 5.25778214 8.24995986 5.25778214 8.24995986 0.181206064 8.04997561 0.181206064"></polygon>
                        <polygon id="Fill-263" fill="#CDCFD1" mask="url(#mask-17)" points="8.19863647 5.25778214 8.39862072 5.25778214 8.39862072 0.181206064 8.19863647 0.181206064"></polygon>
                        <polygon id="Fill-264" fill="#CCCED0" mask="url(#mask-17)" points="8.34729733 5.25778214 8.54728158 5.25778214 8.54728158 0.181206064 8.34729733 0.181206064"></polygon>
                        <polygon id="Fill-265" fill="#CCCDCF" mask="url(#mask-17)" points="8.49595819 5.25778214 8.69594244 5.25778214 8.69594244 0.181206064 8.49595819 0.181206064"></polygon>
                        <polygon id="Fill-266" fill="#CBCCCE" mask="url(#mask-17)" points="8.64481806 5.25778214 8.84480231 5.25778214 8.84480231 0.181206064 8.64481806 0.181206064"></polygon>
                        <polygon id="Fill-267" fill="#CACCCD" mask="url(#mask-17)" points="8.79347892 5.25778214 8.99346317 5.25778214 8.99346317 0.181206064 8.79347892 0.181206064"></polygon>
                        <path d="M8.94206018,5.25770197 L8.94206018,0.181125884 L8.94206018,5.25770197 Z" id="Fill-268" fill="#CACCCD" mask="url(#mask-17)"></path>
                    </g>
                    <g id="Group-333" transform="translate(39.205073, 10.556456)">
                        <path d="M0.0237021532,0.0258779899 L0.0237021532,10.9716062 L0.0237021532,0.0258779899 Z" id="Fill-270" fill="#FEFEFE"></path>
                        <mask id="mask-19" fill="white">
                            <use xlink:href="#path-18"></use>
                        </mask>
                        <g id="Clip-273"></g>
                        <polygon id="Fill-272" fill="#FEFEFE" mask="url(#mask-19)" points="0.0238812626 10.9717866 0.25358205 10.9717866 0.25358205 0.0260583942 0.0238812626 0.0260583942"></polygon>
                        <polygon id="Fill-274" fill="#FCFCFC" mask="url(#mask-19)" points="0.19443328 10.9717866 0.424134067 10.9717866 0.424134067 0.0260583942 0.19443328 0.0260583942"></polygon>
                        <polygon id="Fill-275" fill="#FBFBFB" mask="url(#mask-19)" points="0.365383318 10.9717866 0.595084106 10.9717866 0.595084106 0.0260583942 0.365383318 0.0260583942"></polygon>
                        <polygon id="Fill-276" fill="#F9F9F9" mask="url(#mask-19)" points="0.536134346 10.9717866 0.765835133 10.9717866 0.765835133 0.0260583942 0.536134346 0.0260583942"></polygon>
                        <polygon id="Fill-277" fill="#F8F8F8" mask="url(#mask-19)" points="0.706885374 10.9717866 0.936586161 10.9717866 0.936586161 0.0260583942 0.706885374 0.0260583942"></polygon>
                        <polygon id="Fill-278" fill="#F7F7F7" mask="url(#mask-19)" points="0.877636402 10.9717866 1.10733719 10.9717866 1.10733719 0.0260583942 0.877636402 0.0260583942"></polygon>
                        <polygon id="Fill-279" fill="#F6F6F6" mask="url(#mask-19)" points="1.04838743 10.9717866 1.27808822 10.9717866 1.27808822 0.0260583942 1.04838743 0.0260583942"></polygon>
                        <polygon id="Fill-280" fill="#F5F5F6" mask="url(#mask-19)" points="1.21933747 10.9717866 1.44903826 10.9717866 1.44903826 0.0260583942 1.21933747 0.0260583942"></polygon>
                        <polygon id="Fill-281" fill="#F4F4F5" mask="url(#mask-19)" points="1.3900885 10.9717866 1.61978928 10.9717866 1.61978928 0.0260583942 1.3900885 0.0260583942"></polygon>
                        <polygon id="Fill-282" fill="#F3F3F4" mask="url(#mask-19)" points="1.56083952 10.9717866 1.79054031 10.9717866 1.79054031 0.0260583942 1.56083952 0.0260583942"></polygon>
                        <polygon id="Fill-283" fill="#F2F3F3" mask="url(#mask-19)" points="1.73159055 10.9717866 1.96129134 10.9717866 1.96129134 0.0260583942 1.73159055 0.0260583942"></polygon>
                        <polygon id="Fill-284" fill="#F1F2F2" mask="url(#mask-19)" points="1.90234158 10.9717866 2.13204237 10.9717866 2.13204237 0.0260583942 1.90234158 0.0260583942"></polygon>
                        <polygon id="Fill-285" fill="#F0F1F1" mask="url(#mask-19)" points="2.07309261 10.9717866 2.30279339 10.9717866 2.30279339 0.0260583942 2.07309261 0.0260583942"></polygon>
                        <polygon id="Fill-286" fill="#F0F0F1" mask="url(#mask-19)" points="2.24404265 10.9717866 2.47374343 10.9717866 2.47374343 0.0260583942 2.24404265 0.0260583942"></polygon>
                        <polygon id="Fill-287" fill="#EFEFF0" mask="url(#mask-19)" points="2.41479367 10.9717866 2.64449446 10.9717866 2.64449446 0.0260583942 2.41479367 0.0260583942"></polygon>
                        <polygon id="Fill-288" fill="#EEEFEF" mask="url(#mask-19)" points="2.5855447 10.9717866 2.81524549 10.9717866 2.81524549 0.0260583942 2.5855447 0.0260583942"></polygon>
                        <polygon id="Fill-289" fill="#EDEEEE" mask="url(#mask-19)" points="2.75629573 10.9717866 2.98599652 10.9717866 2.98599652 0.0260583942 2.75629573 0.0260583942"></polygon>
                        <polygon id="Fill-290" fill="#ECEDEE" mask="url(#mask-19)" points="2.92704676 10.9717866 3.15674754 10.9717866 3.15674754 0.0260583942 2.92704676 0.0260583942"></polygon>
                        <polygon id="Fill-291" fill="#ECECED" mask="url(#mask-19)" points="3.09799679 10.9717866 3.32769758 10.9717866 3.32769758 0.0260583942 3.09799679 0.0260583942"></polygon>
                        <polygon id="Fill-292" fill="#EBEBEC" mask="url(#mask-19)" points="3.26874782 10.9717866 3.49844861 10.9717866 3.49844861 0.0260583942 3.26874782 0.0260583942"></polygon>
                        <polygon id="Fill-293" fill="#EAEBEB" mask="url(#mask-19)" points="3.43949885 10.9717866 3.66919964 10.9717866 3.66919964 0.0260583942 3.43949885 0.0260583942"></polygon>
                        <polygon id="Fill-294" fill="#E9EAEB" mask="url(#mask-19)" points="3.61024988 10.9717866 3.83995067 10.9717866 3.83995067 0.0260583942 3.61024988 0.0260583942"></polygon>
                        <polygon id="Fill-295" fill="#E8E9EA" mask="url(#mask-19)" points="3.78100091 10.9717866 4.01070169 10.9717866 4.01070169 0.0260583942 3.78100091 0.0260583942"></polygon>
                        <polygon id="Fill-296" fill="#E7E8E9" mask="url(#mask-19)" points="3.95175193 10.9717866 4.18145272 10.9717866 4.18145272 0.0260583942 3.95175193 0.0260583942"></polygon>
                        <polygon id="Fill-297" fill="#E6E7E8" mask="url(#mask-19)" points="4.12270197 10.9717866 4.35240276 10.9717866 4.35240276 0.0260583942 4.12270197 0.0260583942"></polygon>
                        <polygon id="Fill-298" fill="#E5E6E7" mask="url(#mask-19)" points="4.293453 10.9717866 4.52315379 10.9717866 4.52315379 0.0260583942 4.293453 0.0260583942"></polygon>
                        <polygon id="Fill-299" fill="#E5E6E6" mask="url(#mask-19)" points="4.46420403 10.9717866 4.69390481 10.9717866 4.69390481 0.0260583942 4.46420403 0.0260583942"></polygon>
                        <polygon id="Fill-300" fill="#E4E5E6" mask="url(#mask-19)" points="4.63495506 10.9717866 4.86465584 10.9717866 4.86465584 0.0260583942 4.63495506 0.0260583942"></polygon>
                        <polygon id="Fill-301" fill="#E3E4E5" mask="url(#mask-19)" points="4.80570608 10.9717866 5.03540687 10.9717866 5.03540687 0.0260583942 4.80570608 0.0260583942"></polygon>
                        <polygon id="Fill-302" fill="#E2E3E4" mask="url(#mask-19)" points="4.97665612 10.9717866 5.20635691 10.9717866 5.20635691 0.0260583942 4.97665612 0.0260583942"></polygon>
                        <polygon id="Fill-303" fill="#E1E2E3" mask="url(#mask-19)" points="5.14740715 10.9717866 5.37710794 10.9717866 5.37710794 0.0260583942 5.14740715 0.0260583942"></polygon>
                        <polygon id="Fill-304" fill="#E0E1E3" mask="url(#mask-19)" points="5.31815818 10.9717866 5.54785896 10.9717866 5.54785896 0.0260583942 5.31815818 0.0260583942"></polygon>
                        <polygon id="Fill-305" fill="#E0E1E2" mask="url(#mask-19)" points="5.4889092 10.9717866 5.71860999 10.9717866 5.71860999 0.0260583942 5.4889092 0.0260583942"></polygon>
                        <polygon id="Fill-306" fill="#DFE0E1" mask="url(#mask-19)" points="5.65966023 10.9717866 5.88936102 10.9717866 5.88936102 0.0260583942 5.65966023 0.0260583942"></polygon>
                        <polygon id="Fill-307" fill="#DEDFE0" mask="url(#mask-19)" points="5.83061027 10.9717866 6.06031106 10.9717866 6.06031106 0.0260583942 5.83061027 0.0260583942"></polygon>
                        <polygon id="Fill-308" fill="#DDDEDF" mask="url(#mask-19)" points="6.0013613 10.9717866 6.23106209 10.9717866 6.23106209 0.0260583942 6.0013613 0.0260583942"></polygon>
                        <polygon id="Fill-309" fill="#DCDDDF" mask="url(#mask-19)" points="6.17211233 10.9717866 6.40181311 10.9717866 6.40181311 0.0260583942 6.17211233 0.0260583942"></polygon>
                        <polygon id="Fill-310" fill="#DBDDDE" mask="url(#mask-19)" points="6.34286335 10.9717866 6.57256414 10.9717866 6.57256414 0.0260583942 6.34286335 0.0260583942"></polygon>
                        <polygon id="Fill-311" fill="#DBDCDD" mask="url(#mask-19)" points="6.51361438 10.9717866 6.74331517 10.9717866 6.74331517 0.0260583942 6.51361438 0.0260583942"></polygon>
                        <polygon id="Fill-312" fill="#DADBDC" mask="url(#mask-19)" points="6.68436541 10.9717866 6.9140662 10.9717866 6.9140662 0.0260583942 6.68436541 0.0260583942"></polygon>
                        <polygon id="Fill-313" fill="#D9DADB" mask="url(#mask-19)" points="6.85531545 10.9717866 7.08501624 10.9717866 7.08501624 0.0260583942 6.85531545 0.0260583942"></polygon>
                        <polygon id="Fill-314" fill="#D8D9DB" mask="url(#mask-19)" points="7.02606648 10.9717866 7.25576726 10.9717866 7.25576726 0.0260583942 7.02606648 0.0260583942"></polygon>
                        <polygon id="Fill-315" fill="#D7D8DA" mask="url(#mask-19)" points="7.1968175 10.9717866 7.42651829 10.9717866 7.42651829 0.0260583942 7.1968175 0.0260583942"></polygon>
                        <polygon id="Fill-316" fill="#D6D8D9" mask="url(#mask-19)" points="7.36756853 10.9717866 7.59726932 10.9717866 7.59726932 0.0260583942 7.36756853 0.0260583942"></polygon>
                        <polygon id="Fill-317" fill="#D6D7D8" mask="url(#mask-19)" points="7.53831956 10.9717866 7.76802035 10.9717866 7.76802035 0.0260583942 7.53831956 0.0260583942"></polygon>
                        <polygon id="Fill-318" fill="#D5D6D8" mask="url(#mask-19)" points="7.7092696 10.9717866 7.93897039 10.9717866 7.93897039 0.0260583942 7.7092696 0.0260583942"></polygon>
                        <polygon id="Fill-319" fill="#D4D5D7" mask="url(#mask-19)" points="7.88002063 10.9717866 8.10972141 10.9717866 8.10972141 0.0260583942 7.88002063 0.0260583942"></polygon>
                        <polygon id="Fill-320" fill="#D3D5D6" mask="url(#mask-19)" points="8.05077165 10.9717866 8.28047244 10.9717866 8.28047244 0.0260583942 8.05077165 0.0260583942"></polygon>
                        <polygon id="Fill-321" fill="#D2D4D5" mask="url(#mask-19)" points="8.22152268 10.9717866 8.45122347 10.9717866 8.45122347 0.0260583942 8.22152268 0.0260583942"></polygon>
                        <polygon id="Fill-322" fill="#D1D3D4" mask="url(#mask-19)" points="8.39227371 10.9717866 8.6219745 10.9717866 8.6219745 0.0260583942 8.39227371 0.0260583942"></polygon>
                        <polygon id="Fill-323" fill="#D1D2D4" mask="url(#mask-19)" points="8.56302474 10.9717866 8.79272552 10.9717866 8.79272552 0.0260583942 8.56302474 0.0260583942"></polygon>
                        <polygon id="Fill-324" fill="#D0D1D3" mask="url(#mask-19)" points="8.73397478 10.9717866 8.96367556 10.9717866 8.96367556 0.0260583942 8.73397478 0.0260583942"></polygon>
                        <polygon id="Fill-325" fill="#CFD0D2" mask="url(#mask-19)" points="8.9047258 10.9717866 9.13442659 10.9717866 9.13442659 0.0260583942 8.9047258 0.0260583942"></polygon>
                        <polygon id="Fill-326" fill="#CED0D1" mask="url(#mask-19)" points="9.07547683 10.9717866 9.30517762 10.9717866 9.30517762 0.0260583942 9.07547683 0.0260583942"></polygon>
                        <polygon id="Fill-327" fill="#CDCFD1" mask="url(#mask-19)" points="9.24622786 10.9717866 9.47592865 10.9717866 9.47592865 0.0260583942 9.24622786 0.0260583942"></polygon>
                        <polygon id="Fill-328" fill="#CCCED0" mask="url(#mask-19)" points="9.41697889 10.9717866 9.64667967 10.9717866 9.64667967 0.0260583942 9.41697889 0.0260583942"></polygon>
                        <polygon id="Fill-329" fill="#CCCDCF" mask="url(#mask-19)" points="9.58792892 10.9717866 9.81762971 10.9717866 9.81762971 0.0260583942 9.58792892 0.0260583942"></polygon>
                        <polygon id="Fill-330" fill="#CBCCCE" mask="url(#mask-19)" points="9.75867995 10.9717866 9.98838074 10.9717866 9.98838074 0.0260583942 9.75867995 0.0260583942"></polygon>
                        <polygon id="Fill-331" fill="#CACCCD" mask="url(#mask-19)" points="9.92943098 10.9717866 10.1591318 10.9717866 10.1591318 0.0260583942 9.92943098 0.0260583942"></polygon>
                        <polygon id="Fill-332" fill="#CACCCD" mask="url(#mask-19)" points="10.100182 10.9715862 10.1058041 10.9715862 10.1058041 0.025857945 10.100182 0.025857945"></polygon>
                    </g>
                </g>
            </g>
        </g>
    </g>
</svg>