<svg width="198px" height="86px" viewBox="0 0 198 86" version="1.1" xmlns="http://www.w3.org/2000/svg" xmlns:xlink="http://www.w3.org/1999/xlink">
    <!-- Generator: Sketch 47.1 (45422) - http://www.bohemiancoding.com/sketch -->
    <desc>Created with Sketch.</desc>
    <defs>
        <filter x="-1.9%" y="-0.8%" width="103.9%" height="102.3%" filterUnits="objectBoundingBox" id="filter-1">
            <feOffset dx="0" dy="2" in="SourceAlpha" result="shadowOffsetOuter1"></feOffset>
            <feGaussianBlur stdDeviation="2" in="shadowOffsetOuter1" result="shadowBlurOuter1"></feGaussianBlur>
            <feColorMatrix values="0 0 0 0 0   0 0 0 0 0   0 0 0 0 0  0 0 0 0.16 0" type="matrix" in="shadowBlurOuter1" result="shadowMatrixOuter1"></feColorMatrix>
            <feMerge>
                <feMergeNode in="shadowMatrixOuter1"></feMergeNode>
                <feMergeNode in="SourceGraphic"></feMergeNode>
            </feMerge>
        </filter>
        <path d="M0.210509543,2.71517507 C0.461884024,2.53100472 0.713940298,2.35335195 0.966678901,2.18221674 L0.966678989,0.554454505 C0.390431132,1.75741618 0.21948183,2.66436039 0.210509543,2.71336561 L0.210509543,2.71517507 L0.210509543,2.71517507 Z" id="path-2"></path>
        <path d="M0.210228489,8.97094377 C2.85045099,6.36865922 5.59185297,5.06751695 8.43555866,5.06751695 L8.43555866,5.06751695 C10.1949575,5.06751695 11.4130461,5.63164857 12.0909487,6.76218652 L12.0909487,6.76218652 C12.7666028,7.89215579 13.1061162,9.72501486 13.1061162,12.2579203 L13.1061162,12.2579203 L13.1061162,34.6531493 C13.1061162,37.8730214 13.7154415,40.2694434 14.9340923,41.8441213 L14.9340923,41.8441213 C16.1521809,43.4187992 18.4023002,44.2069911 21.6861367,44.2069911 L21.6861367,44.2069911 C24.969411,44.2069911 27.9311595,43.1117114 30.5713819,40.9194459 L30.5713819,40.9194459 C27.0975529,42.2564151 21.1144726,42.8245274 18.4748122,39.039955 L18.4748122,39.039955 C17.9773464,38.3268289 17.6029823,37.5949364 17.6029823,34.6531493 L17.6029823,34.6531493 L17.6029823,12.2579203 C17.6029823,8.80147681 17.0740384,6.30667299 15.9385797,4.40784692 L15.9385797,4.40784692 C15.0656256,2.9520234 13.4962193,0.518068448 8.99766692,0.518068448 L8.99766692,0.518068448 C1.32545128,0.518068448 0.210228489,8.97094377 0.210228489,8.97094377 L0.210228489,8.97094377 Z" id="path-4"></path>
        <path d="M1.0248571,2.18237869 C0.772111385,2.35354983 0.520054755,2.53124096 0.268687748,2.71545208 C0.268687748,2.71545208 0.432569281,1.79162084 1.02485719,0.554783262 L1.02485719,2.18237575 L1.0248571,2.18237869 Z" id="path-6"></path>
        <path d="M0.268687748,8.97094377 C2.90834814,6.36865922 5.65031223,5.06751695 8.49345581,5.06751695 L8.49345581,5.06751695 C10.2528547,5.06751695 11.4715054,5.63164857 12.1488458,6.76218652 L12.1488458,6.76218652 C12.8239378,7.89215579 13.1640133,9.72501486 13.1640133,12.2579203 L13.1640133,12.2579203 L13.1640133,34.6531493 C13.1640133,37.8730214 13.7739008,40.2694434 14.9919894,41.8441213 L14.9919894,41.8441213 C16.210078,43.4187992 18.4601974,44.2069911 21.7445959,44.2069911 L21.7445959,44.2069911 C25.0273082,44.2069911 27.9896187,43.1117114 30.6292791,40.9194459 L30.6292791,40.9194459 C27.1554501,42.2564151 21.1723697,42.8245274 18.5327093,39.039955 L18.5327093,39.039955 C18.0358056,38.3268289 17.6608794,37.5949364 17.6608794,34.6531493 L17.6608794,34.6531493 L17.6608794,12.2579203 C17.6608794,8.80147681 17.1319356,6.30667299 15.9964769,4.40784692 L15.9964769,4.40784692 C15.1235227,2.9520234 13.5546786,0.518068448 9.05500196,0.518068448 L9.05500196,0.518068448 C1.38334843,0.518068448 0.268687748,8.97094377 0.268687748,8.97094377 L0.268687748,8.97094377 Z" id="path-8"></path>
        <path d="M0.227653845,35.2732391 L0.227653845,11.6829838 C0.227653845,10.4358565 0.425287929,9.23722163 0.789649684,8.11662596 L0.789649684,34.6510899 C3.93872128,31.1127342 8.08895733,25.5894826 11.2314851,17.973165 C14.024039,11.2052917 15.5883863,2.51186425 15.4591014,0.756345814 C14.8014347,0.614175548 13.7160037,0.462337704 12.3646954,0.345758086 C12.0414832,0.317892714 11.7210814,0.304244369 11.4029282,0.304244369 C6.49590671,0.304244369 2.26884772,3.56734796 0.789649684,8.11662596 L0.227653845,35.2732391 Z" id="path-10"></path>
        <path d="M0.227653845,11.6829838 L0.227653845,35.2735803 C3.43110882,31.7756231 7.89818316,26.0518482 11.2314851,17.973165 L11.2314851,17.973165 C14.024039,11.2052917 15.5883863,2.51186425 15.4591014,0.756345814 L15.4591014,0.756345814 C14.8014347,0.614175548 13.7160037,0.462337704 12.3646954,0.345758086 L12.3646954,0.345758086 C12.0414832,0.317892714 11.7210814,0.304244369 11.4029282,0.304244369 L11.4029282,0.304244369 C5.2871903,0.304244369 0.227653845,5.37289868 0.227653845,11.6829838 L0.227653845,11.6829838 Z" id="path-12"></path>
        <path d="M1.23676768,0.141365756 C0.787499855,1.30273012 0.535270903,2.38694799 0.480602562,3.39388858 C0.73363539,3.44729228 0.985697608,3.49854453 1.23677201,3.54768045 L1.23676768,0.141365756 L1.23676768,0.141365756 Z" id="path-14"></path>
        <path d="M1.85158461,5.23925863 C1.00448746,7.29390331 0.546931337,9.14325413 0.480602562,10.7867424 L0.480602562,10.7867424 C15.026278,14.9165043 25.2572105,6.18042579 25.2572105,0.821744136 L25.2572105,0.821744136 C25.2268566,1.98640295 24.6979127,2.92813879 23.5810036,3.64695166 L23.5810036,3.64695166 C22.4646566,4.3663332 20.8901914,4.72573963 18.8598563,4.72573963 L18.8598563,4.72573963 C14.7294849,4.72573963 10.0257629,3.32280345 4.74531793,0.514087681 L4.74531793,0.514087681 C3.66157321,1.60993609 2.69699543,3.18461395 1.85158461,5.23925863 L1.85158461,5.23925863 Z" id="path-16"></path>
        <path d="M2.90666181,2.1530265 C1.07418889,3.69870163 0.066890883,5.88812373 0.066890883,8.32150999 L0.066890883,8.32150999 C0.066890883,10.9243632 1.30915014,14.5059166 7.22871223,16.7851903 L7.22871223,16.7851903 C11.9341205,18.5964394 16.7373356,20.0465761 21.3202042,22.2143884 L21.3202042,22.2143884 C23.3050085,23.1532808 25.3004928,24.702368 26.7080119,26.4163727 L26.7080119,26.4163727 C27.5140751,27.3984849 28.1863566,28.5477894 28.4466127,29.809124 L28.4466127,29.809124 C28.4735939,29.9399206 28.4921435,30.0684425 28.5039478,30.1952584 L28.5039478,30.1952584 C28.1436364,23.1441819 23.6490187,18.0095606 15.0229054,14.7931005 L15.0229054,14.7931005 L8.82847234,12.5337306 C5.98532875,11.4384509 4.56375696,10.0343774 4.56375696,8.32150999 L4.56375696,8.32150999 C4.56375696,7.22679895 4.97016124,6.33567572 5.78240767,5.64984636 L5.78240767,5.64984636 C6.59465411,4.9668604 7.74472761,4.62280836 9.23487661,4.62280836 L9.23487661,4.62280836 C13.0246105,4.62280836 17.6957301,5.89096713 23.2482355,8.42387259 L23.2482355,8.42387259 C23.2482355,8.42387259 19.3831791,0.0733598571 9.23487661,0.0733598571 L9.23487661,0.0733598571 C6.6755977,0.0733598571 4.5457695,0.772837565 2.90666181,2.1530265 L2.90666181,2.1530265 Z M28.5275563,31.1273267 C28.5275563,30.8071592 28.5337395,30.5046209 28.5039478,30.1952584 L28.5039478,30.1952584 C28.5196868,30.5023462 28.5275563,30.812846 28.5275563,31.1273267 L28.5275563,31.1273267 Z" id="path-18"></path>
    </defs>
    <g id="Page-1" stroke="none" stroke-width="1" fill="none" fill-rule="evenodd">
        <g id="Opening-Screen" transform="translate(-76.000000, -257.000000)">
            <g id="Header" filter="url(#filter-1)" transform="translate(0.000000, 24.000000)">
                <g id="Page-1" transform="translate(80.000000, 235.000000)">
                    <g id="Group-3" transform="translate(0.000000, 0.377604)" fill="#FEFEFE">
                        <path d="M42.8505807,41.7964658 L42.8505807,63.1640881 C42.8505807,67.5474817 43.6279764,70.9379582 45.1861405,73.3343802 C42.545918,75.5266457 39.5836075,76.6213567 36.3014573,76.6213567 C33.0170588,76.6213567 30.7669394,75.8337335 29.5488508,74.2590556 C28.3302001,72.6838091 27.7208748,70.2879558 27.7208748,67.0675149 L27.7208748,44.6728546 C27.7208748,42.1399492 27.3813614,40.3070901 26.7057072,39.1771208 C26.0278047,38.0465829 24.8097161,37.4818826 23.0497551,37.4818826 C20.2066115,37.4818826 17.4652095,38.7835935 14.8255492,41.3853094 L14.8255492,75.7996126 C12.7260748,76.210769 10.3067608,76.4160629 7.56479676,76.4160629 C4.82339477,76.4160629 2.3006529,76.210769 -5.62108253e-05,75.7996126 L-5.62108253e-05,0.910572118 L0.711010738,0.191190573 L6.60021898,0.191190573 C9.57826854,0.191190573 11.6934819,0.894080367 12.9464212,2.29701655 C14.1982363,3.70165877 14.8255492,6.0821577 14.8255492,9.43680729 L14.8255492,29.571529 C19.4280916,25.6681022 24.030634,23.7163888 28.6348628,23.7163888 C33.2374052,23.7163888 36.7584514,25.3598771 39.1951907,28.6474223 C41.6324921,31.9343988 42.8505807,36.3177925 42.8505807,41.7964658" id="Fill-1"></path>
                    </g>
                    <g id="Group-68" transform="translate(14.614815, 32.792425)">
                        <g id="Group-6" transform="translate(0.000000, 6.255492)">
                            <mask id="mask-3" fill="white">
                                <use xlink:href="#path-2"></use>
                            </mask>
                            <g id="Clip-5"></g>
                            <path d="M0.210509543,-5.73782132 L0.210509543,37.9511013 L0.210509543,-5.73782132 Z" id="Fill-4" fill="#FEFEFE" mask="url(#mask-3)"></path>
                        </g>
                        <mask id="mask-5" fill="white">
                            <use xlink:href="#path-4"></use>
                        </mask>
                        <g id="Clip-8"></g>
                        <polygon id="Fill-7" fill="#FEFEFE" mask="url(#mask-5)" points="0.210228489 44.2069911 0.902879701 44.2069911 0.902879701 0.518068448 0.210228489 0.518068448"></polygon>
                        <polygon id="Fill-9" fill="#FCFCFC" mask="url(#mask-5)" points="0.725119656 44.2069911 1.41777087 44.2069911 1.41777087 0.518068448 0.725119656 0.518068448"></polygon>
                        <polygon id="Fill-10" fill="#FBFBFB" mask="url(#mask-5)" points="1.23944871 44.2069911 1.93209993 44.2069911 1.93209993 0.518068448 1.23944871 0.518068448"></polygon>
                        <polygon id="Fill-11" fill="#F9F9F9" mask="url(#mask-5)" points="1.75433988 44.2069911 2.44623492 44.2069911 2.44623492 0.518068448 1.75433988 0.518068448"></polygon>
                        <polygon id="Fill-12" fill="#F8F8F8" mask="url(#mask-5)" points="2.26866894 44.2069911 2.96132015 44.2069911 2.96132015 0.518068448 2.26866894 0.518068448"></polygon>
                        <polygon id="Fill-13" fill="#F7F7F7" mask="url(#mask-5)" points="2.782998 44.2069911 3.47564921 44.2069911 3.47564921 0.518068448 2.782998 0.518068448"></polygon>
                        <polygon id="Fill-14" fill="#F6F6F6" mask="url(#mask-5)" points="3.29788916 44.2069911 3.99054037 44.2069911 3.99054037 0.518068448 3.29788916 0.518068448"></polygon>
                        <polygon id="Fill-15" fill="#F5F5F6" mask="url(#mask-5)" points="3.81221822 44.2069911 4.50486943 44.2069911 4.50486943 0.518068448 3.81221822 0.518068448"></polygon>
                        <polygon id="Fill-16" fill="#F4F4F5" mask="url(#mask-5)" points="4.32710939 44.2069911 5.0197606 44.2069911 5.0197606 0.518068448 4.32710939 0.518068448"></polygon>
                        <polygon id="Fill-17" fill="#F3F3F4" mask="url(#mask-5)" points="4.84143845 44.2069911 5.53408966 44.2069911 5.53408966 0.518068448 4.84143845 0.518068448"></polygon>
                        <polygon id="Fill-18" fill="#F2F3F3" mask="url(#mask-5)" points="5.35632961 44.2069911 6.04898082 44.2069911 6.04898082 0.518068448 5.35632961 0.518068448"></polygon>
                        <polygon id="Fill-19" fill="#F1F2F2" mask="url(#mask-5)" points="5.87122078 44.2069911 6.56311582 44.2069911 6.56311582 0.518068448 5.87122078 0.518068448"></polygon>
                        <polygon id="Fill-20" fill="#F0F1F1" mask="url(#mask-5)" points="6.38498773 44.2069911 7.07763894 44.2069911 7.07763894 0.518068448 6.38498773 0.518068448"></polygon>
                        <polygon id="Fill-21" fill="#F0F0F1" mask="url(#mask-5)" points="6.89987889 44.2069911 7.59253011 44.2069911 7.59253011 0.518068448 6.89987889 0.518068448"></polygon>
                        <polygon id="Fill-22" fill="#EFEFF0" mask="url(#mask-5)" points="7.41420795 44.2069911 8.10685916 44.2069911 8.10685916 0.518068448 7.41420795 0.518068448"></polygon>
                        <polygon id="Fill-23" fill="#EEEFEF" mask="url(#mask-5)" points="7.92909912 44.2069911 8.62175033 44.2069911 8.62175033 0.518068448 7.92909912 0.518068448"></polygon>
                        <polygon id="Fill-24" fill="#EDEEEE" mask="url(#mask-5)" points="8.44399029 44.2069911 9.1366415 44.2069911 9.1366415 0.518068448 8.44399029 0.518068448"></polygon>
                        <polygon id="Fill-25" fill="#ECEDEE" mask="url(#mask-5)" points="8.95831934 44.2069911 9.65097056 44.2069911 9.65097056 0.518068448 8.95831934 0.518068448"></polygon>
                        <polygon id="Fill-26" fill="#ECECED" mask="url(#mask-5)" points="9.47321051 44.2069911 10.1651056 44.2069911 10.1651056 0.518068448 9.47321051 0.518068448"></polygon>
                        <polygon id="Fill-27" fill="#EBEBEC" mask="url(#mask-5)" points="9.98753957 44.2069911 10.6801908 44.2069911 10.6801908 0.518068448 9.98753957 0.518068448"></polygon>
                        <polygon id="Fill-28" fill="#EAEBEB" mask="url(#mask-5)" points="10.5018686 44.2069911 11.1945198 44.2069911 11.1945198 0.518068448 10.5018686 0.518068448"></polygon>
                        <polygon id="Fill-29" fill="#E9EAEB" mask="url(#mask-5)" points="11.0167598 44.2069911 11.709411 44.2069911 11.709411 0.518068448 11.0167598 0.518068448"></polygon>
                        <polygon id="Fill-30" fill="#E8E9EA" mask="url(#mask-5)" points="11.5310889 44.2069911 12.2237401 44.2069911 12.2237401 0.518068448 11.5310889 0.518068448"></polygon>
                        <polygon id="Fill-31" fill="#E7E8E9" mask="url(#mask-5)" points="12.04598 44.2069911 12.7386312 44.2069911 12.7386312 0.518068448 12.04598 0.518068448"></polygon>
                        <polygon id="Fill-32" fill="#E6E7E8" mask="url(#mask-5)" points="12.5603091 44.2069911 13.2529603 44.2069911 13.2529603 0.518068448 12.5603091 0.518068448"></polygon>
                        <polygon id="Fill-33" fill="#E5E6E7" mask="url(#mask-5)" points="13.0752002 44.2069911 13.7670953 44.2069911 13.7670953 0.518068448 13.0752002 0.518068448"></polygon>
                        <polygon id="Fill-34" fill="#E5E6E6" mask="url(#mask-5)" points="13.5895293 44.2069911 14.2821805 44.2069911 14.2821805 0.518068448 13.5895293 0.518068448"></polygon>
                        <polygon id="Fill-35" fill="#E4E5E6" mask="url(#mask-5)" points="14.1038584 44.2069911 14.7965096 44.2069911 14.7965096 0.518068448 14.1038584 0.518068448"></polygon>
                        <polygon id="Fill-36" fill="#E3E4E5" mask="url(#mask-5)" points="14.6187495 44.2069911 15.3114007 44.2069911 15.3114007 0.518068448 14.6187495 0.518068448"></polygon>
                        <polygon id="Fill-37" fill="#E2E3E4" mask="url(#mask-5)" points="15.1330786 44.2069911 15.8257298 44.2069911 15.8257298 0.518068448 15.1330786 0.518068448"></polygon>
                        <polygon id="Fill-38" fill="#E1E2E3" mask="url(#mask-5)" points="15.6479697 44.2069911 16.340621 44.2069911 16.340621 0.518068448 15.6479697 0.518068448"></polygon>
                        <polygon id="Fill-39" fill="#E0E1E3" mask="url(#mask-5)" points="16.1622988 44.2069911 16.85495 44.2069911 16.85495 0.518068448 16.1622988 0.518068448"></polygon>
                        <polygon id="Fill-40" fill="#E0E1E2" mask="url(#mask-5)" points="16.67719 44.2069911 17.3698412 44.2069911 17.3698412 0.518068448 16.67719 0.518068448"></polygon>
                        <polygon id="Fill-41" fill="#DFE0E1" mask="url(#mask-5)" points="17.1920811 44.2069911 17.8839762 44.2069911 17.8839762 0.518068448 17.1920811 0.518068448"></polygon>
                        <polygon id="Fill-42" fill="#DEDFE0" mask="url(#mask-5)" points="17.7064102 44.2069911 18.3990614 44.2069911 18.3990614 0.518068448 17.7064102 0.518068448"></polygon>
                        <polygon id="Fill-43" fill="#DDDEDF" mask="url(#mask-5)" points="18.2207393 44.2069911 18.9133905 44.2069911 18.9133905 0.518068448 18.2207393 0.518068448"></polygon>
                        <polygon id="Fill-44" fill="#DCDDDF" mask="url(#mask-5)" points="18.7356304 44.2069911 19.4282816 44.2069911 19.4282816 0.518068448 18.7356304 0.518068448"></polygon>
                        <polygon id="Fill-45" fill="#DBDDDE" mask="url(#mask-5)" points="19.2499595 44.2069911 19.9426107 44.2069911 19.9426107 0.518068448 19.2499595 0.518068448"></polygon>
                        <polygon id="Fill-46" fill="#DBDCDD" mask="url(#mask-5)" points="19.7648506 44.2069911 20.4575019 44.2069911 20.4575019 0.518068448 19.7648506 0.518068448"></polygon>
                        <polygon id="Fill-47" fill="#DADBDC" mask="url(#mask-5)" points="20.2791797 44.2069911 20.9718309 44.2069911 20.9718309 0.518068448 20.2791797 0.518068448"></polygon>
                        <polygon id="Fill-48" fill="#D9DADB" mask="url(#mask-5)" points="20.7940709 44.2069911 21.4859659 44.2069911 21.4859659 0.518068448 20.7940709 0.518068448"></polygon>
                        <polygon id="Fill-49" fill="#D8D9DB" mask="url(#mask-5)" points="21.3083999 44.2069911 22.0010511 44.2069911 22.0010511 0.518068448 21.3083999 0.518068448"></polygon>
                        <polygon id="Fill-50" fill="#D7D8DA" mask="url(#mask-5)" points="21.822729 44.2069911 22.5153802 44.2069911 22.5153802 0.518068448 21.822729 0.518068448"></polygon>
                        <polygon id="Fill-51" fill="#D6D8D9" mask="url(#mask-5)" points="22.3376202 44.2069911 23.0302714 44.2069911 23.0302714 0.518068448 22.3376202 0.518068448"></polygon>
                        <polygon id="Fill-52" fill="#D6D7D8" mask="url(#mask-5)" points="22.8519492 44.2069911 23.5446004 44.2069911 23.5446004 0.518068448 22.8519492 0.518068448"></polygon>
                        <polygon id="Fill-53" fill="#D5D6D8" mask="url(#mask-5)" points="23.3668404 44.2069911 24.0594916 44.2069911 24.0594916 0.518068448 23.3668404 0.518068448"></polygon>
                        <polygon id="Fill-54" fill="#D4D5D7" mask="url(#mask-5)" points="23.8811694 44.2069911 24.5738206 44.2069911 24.5738206 0.518068448 23.8811694 0.518068448"></polygon>
                        <polygon id="Fill-55" fill="#D3D5D6" mask="url(#mask-5)" points="24.3960606 44.2069911 25.0879556 44.2069911 25.0879556 0.518068448 24.3960606 0.518068448"></polygon>
                        <polygon id="Fill-56" fill="#D2D4D5" mask="url(#mask-5)" points="24.9103897 44.2069911 25.6030409 44.2069911 25.6030409 0.518068448 24.9103897 0.518068448"></polygon>
                        <polygon id="Fill-57" fill="#D1D3D4" mask="url(#mask-5)" points="25.4247187 44.2069911 26.1173699 44.2069911 26.1173699 0.518068448 25.4247187 0.518068448"></polygon>
                        <polygon id="Fill-58" fill="#D1D2D4" mask="url(#mask-5)" points="25.9396099 44.2069911 26.6322611 44.2069911 26.6322611 0.518068448 25.9396099 0.518068448"></polygon>
                        <polygon id="Fill-59" fill="#D0D1D3" mask="url(#mask-5)" points="26.4545011 44.2069911 27.1471523 44.2069911 27.1471523 0.518068448 26.4545011 0.518068448"></polygon>
                        <polygon id="Fill-60" fill="#CFD0D2" mask="url(#mask-5)" points="26.9688301 44.2069911 27.6614813 44.2069911 27.6614813 0.518068448 26.9688301 0.518068448"></polygon>
                        <polygon id="Fill-61" fill="#CED0D1" mask="url(#mask-5)" points="27.4837213 44.2069911 28.1763725 44.2069911 28.1763725 0.518068448 27.4837213 0.518068448"></polygon>
                        <polygon id="Fill-62" fill="#CDCFD1" mask="url(#mask-5)" points="27.9980503 44.2069911 28.6907015 44.2069911 28.6907015 0.518068448 27.9980503 0.518068448"></polygon>
                        <polygon id="Fill-63" fill="#CCCED0" mask="url(#mask-5)" points="28.5129415 44.2069911 29.2048365 44.2069911 29.2048365 0.518068448 28.5129415 0.518068448"></polygon>
                        <polygon id="Fill-64" fill="#CCCDCF" mask="url(#mask-5)" points="29.0272706 44.2069911 29.7199218 44.2069911 29.7199218 0.518068448 29.0272706 0.518068448"></polygon>
                        <polygon id="Fill-65" fill="#CBCCCE" mask="url(#mask-5)" points="29.5415996 44.2069911 30.2342508 44.2069911 30.2342508 0.518068448 29.5415996 0.518068448"></polygon>
                        <polygon id="Fill-66" fill="#CACCCD" mask="url(#mask-5)" points="30.0564908 44.2069911 30.749142 44.2069911 30.749142 0.518068448 30.0564908 0.518068448"></polygon>
                        <path d="M30.5712133,44.2067068 L30.5712133,0.517784108 L30.5712133,44.2067068 Z" id="Fill-67" fill="#CACCCD" mask="url(#mask-5)"></path>
                    </g>
                    <path d="M187.93269,42.17407 L187.93269,63.5416923 C187.93269,67.9250859 188.710086,71.3155624 190.267688,73.7119844 C187.628027,75.9042499 184.665717,76.998961 181.383567,76.998961 C178.099168,76.998961 175.849049,76.2113377 174.63096,74.6366598 C173.412309,73.0614133 172.802984,70.66556 172.802984,67.4451191 L172.802984,45.0504589 C172.802984,42.5175534 172.462909,40.6846943 171.787254,39.5547251 C171.109914,38.4241871 169.891263,37.8594868 168.131864,37.8594868 C165.288721,37.8594868 162.547319,39.1611978 159.907658,41.7629136 L159.907658,76.1772168 C157.808184,76.5883732 155.38887,76.7936671 152.646906,76.7936671 C149.905504,76.7936671 147.3822,76.5883732 145.082053,76.1772168 L145.082053,1.28817634 L145.792558,0.568794799 L151.682328,0.568794799 C154.660378,0.568794799 156.775029,1.27168459 158.028531,2.67462078 C159.280346,4.079263 159.907658,6.45976193 159.907658,9.81441152 L159.907658,29.9491332 C164.509639,26.0457064 169.112743,24.093993 173.716972,24.093993 C178.319515,24.093993 181.839999,25.7374813 184.2773,29.0250265 C186.714039,32.3120031 187.93269,36.6953967 187.93269,42.17407" id="Fill-69" fill="#FEFEFE"></path>
                    <g id="Group-135" transform="translate(159.638746, 32.792425)">
                        <g id="Group-73" transform="translate(0.000000, 6.255492)">
                            <mask id="mask-7" fill="white">
                                <use xlink:href="#path-6"></use>
                            </mask>
                            <g id="Clip-72"></g>
                            <path d="M0.268687748,-5.73782132 L0.268687748,37.9511013 L0.268687748,-5.73782132 Z" id="Fill-71" fill="#FEFEFE" mask="url(#mask-7)"></path>
                        </g>
                        <mask id="mask-9" fill="white">
                            <use xlink:href="#path-8"></use>
                        </mask>
                        <g id="Clip-75"></g>
                        <polygon id="Fill-74" fill="#FEFEFE" mask="url(#mask-9)" points="0.268687748 44.2069911 0.960582791 44.2069911 0.960582791 0.518068448 0.268687748 0.518068448"></polygon>
                        <polygon id="Fill-76" fill="#FCFCFC" mask="url(#mask-9)" points="0.783016806 44.2069911 1.47491185 44.2069911 1.47491185 0.518068448 0.783016806 0.518068448"></polygon>
                        <polygon id="Fill-77" fill="#FBFBFB" mask="url(#mask-9)" points="1.29734586 44.2069911 1.98999708 44.2069911 1.98999708 0.518068448 1.29734586 0.518068448"></polygon>
                        <polygon id="Fill-78" fill="#F9F9F9" mask="url(#mask-9)" points="1.81223703 44.2069911 2.50413207 44.2069911 2.50413207 0.518068448 1.81223703 0.518068448"></polygon>
                        <polygon id="Fill-79" fill="#F8F8F8" mask="url(#mask-9)" points="2.32656609 44.2069911 3.0192173 44.2069911 3.0192173 0.518068448 2.32656609 0.518068448"></polygon>
                        <polygon id="Fill-80" fill="#F7F7F7" mask="url(#mask-9)" points="2.84145726 44.2069911 3.5333523 44.2069911 3.5333523 0.518068448 2.84145726 0.518068448"></polygon>
                        <polygon id="Fill-81" fill="#F6F6F6" mask="url(#mask-9)" points="3.35578631 44.2069911 4.04843753 44.2069911 4.04843753 0.518068448 3.35578631 0.518068448"></polygon>
                        <polygon id="Fill-82" fill="#F5F5F6" mask="url(#mask-9)" points="3.87067748 44.2069911 4.56257252 44.2069911 4.56257252 0.518068448 3.87067748 0.518068448"></polygon>
                        <polygon id="Fill-83" fill="#F4F4F5" mask="url(#mask-9)" points="4.38500654 44.2069911 5.07690158 44.2069911 5.07690158 0.518068448 4.38500654 0.518068448"></polygon>
                        <polygon id="Fill-84" fill="#F3F3F4" mask="url(#mask-9)" points="4.8993356 44.2069911 5.59198681 44.2069911 5.59198681 0.518068448 4.8993356 0.518068448"></polygon>
                        <polygon id="Fill-85" fill="#F2F3F3" mask="url(#mask-9)" points="5.41422676 44.2069911 6.1061218 44.2069911 6.1061218 0.518068448 5.41422676 0.518068448"></polygon>
                        <polygon id="Fill-86" fill="#F1F2F2" mask="url(#mask-9)" points="5.92855582 44.2069911 6.62120703 44.2069911 6.62120703 0.518068448 5.92855582 0.518068448"></polygon>
                        <polygon id="Fill-87" fill="#F0F1F1" mask="url(#mask-9)" points="6.44344699 44.2069911 7.13534203 44.2069911 7.13534203 0.518068448 6.44344699 0.518068448"></polygon>
                        <polygon id="Fill-88" fill="#F0F0F1" mask="url(#mask-9)" points="6.95777605 44.2069911 7.65042726 44.2069911 7.65042726 0.518068448 6.95777605 0.518068448"></polygon>
                        <polygon id="Fill-89" fill="#EFEFF0" mask="url(#mask-9)" points="7.47266721 44.2069911 8.16456225 44.2069911 8.16456225 0.518068448 7.47266721 0.518068448"></polygon>
                        <polygon id="Fill-90" fill="#EEEFEF" mask="url(#mask-9)" points="7.98755838 44.2069911 8.67945342 44.2069911 8.67945342 0.518068448 7.98755838 0.518068448"></polygon>
                        <polygon id="Fill-91" fill="#EDEEEE" mask="url(#mask-9)" points="8.50188744 44.2069911 9.19453865 44.2069911 9.19453865 0.518068448 8.50188744 0.518068448"></polygon>
                        <polygon id="Fill-92" fill="#ECEDEE" mask="url(#mask-9)" points="9.0167786 44.2069911 9.70867364 44.2069911 9.70867364 0.518068448 9.0167786 0.518068448"></polygon>
                        <polygon id="Fill-93" fill="#ECECED" mask="url(#mask-9)" points="9.53110766 44.2069911 10.2237589 44.2069911 10.2237589 0.518068448 9.53110766 0.518068448"></polygon>
                        <polygon id="Fill-94" fill="#EBEBEC" mask="url(#mask-9)" points="10.0459988 44.2069911 10.7378939 44.2069911 10.7378939 0.518068448 10.0459988 0.518068448"></polygon>
                        <polygon id="Fill-95" fill="#EAEBEB" mask="url(#mask-9)" points="10.5603279 44.2069911 11.2529791 44.2069911 11.2529791 0.518068448 10.5603279 0.518068448"></polygon>
                        <polygon id="Fill-96" fill="#E9EAEB" mask="url(#mask-9)" points="11.0752191 44.2069911 11.7671141 44.2069911 11.7671141 0.518068448 11.0752191 0.518068448"></polygon>
                        <polygon id="Fill-97" fill="#E8E9EA" mask="url(#mask-9)" points="11.5895481 44.2069911 12.2814432 44.2069911 12.2814432 0.518068448 11.5895481 0.518068448"></polygon>
                        <polygon id="Fill-98" fill="#E7E8E9" mask="url(#mask-9)" points="12.1038772 44.2069911 12.7965284 44.2069911 12.7965284 0.518068448 12.1038772 0.518068448"></polygon>
                        <polygon id="Fill-99" fill="#E6E7E8" mask="url(#mask-9)" points="12.6187683 44.2069911 13.3106634 44.2069911 13.3106634 0.518068448 12.6187683 0.518068448"></polygon>
                        <polygon id="Fill-100" fill="#E5E6E7" mask="url(#mask-9)" points="13.1330974 44.2069911 13.8257486 44.2069911 13.8257486 0.518068448 13.1330974 0.518068448"></polygon>
                        <polygon id="Fill-101" fill="#E5E6E6" mask="url(#mask-9)" points="13.6479886 44.2069911 14.3398836 44.2069911 14.3398836 0.518068448 13.6479886 0.518068448"></polygon>
                        <polygon id="Fill-102" fill="#E4E5E6" mask="url(#mask-9)" points="14.1623176 44.2069911 14.8549688 44.2069911 14.8549688 0.518068448 14.1623176 0.518068448"></polygon>
                        <polygon id="Fill-103" fill="#E3E4E5" mask="url(#mask-9)" points="14.6772088 44.2069911 15.3691038 44.2069911 15.3691038 0.518068448 14.6772088 0.518068448"></polygon>
                        <polygon id="Fill-104" fill="#E2E3E4" mask="url(#mask-9)" points="15.1915378 44.2069911 15.8841891 44.2069911 15.8841891 0.518068448 15.1915378 0.518068448"></polygon>
                        <polygon id="Fill-105" fill="#E1E2E3" mask="url(#mask-9)" points="15.706429 44.2069911 16.398324 44.2069911 16.398324 0.518068448 15.706429 0.518068448"></polygon>
                        <polygon id="Fill-106" fill="#E0E1E3" mask="url(#mask-9)" points="16.2207581 44.2069911 16.9126531 44.2069911 16.9126531 0.518068448 16.2207581 0.518068448"></polygon>
                        <polygon id="Fill-107" fill="#E0E1E2" mask="url(#mask-9)" points="16.7350871 44.2069911 17.4277383 44.2069911 17.4277383 0.518068448 16.7350871 0.518068448"></polygon>
                        <polygon id="Fill-108" fill="#DFE0E1" mask="url(#mask-9)" points="17.2499783 44.2069911 17.9418733 44.2069911 17.9418733 0.518068448 17.2499783 0.518068448"></polygon>
                        <polygon id="Fill-109" fill="#DEDFE0" mask="url(#mask-9)" points="17.7643073 44.2069911 18.4569586 44.2069911 18.4569586 0.518068448 17.7643073 0.518068448"></polygon>
                        <polygon id="Fill-110" fill="#DDDEDF" mask="url(#mask-9)" points="18.2791985 44.2069911 18.9710936 44.2069911 18.9710936 0.518068448 18.2791985 0.518068448"></polygon>
                        <polygon id="Fill-111" fill="#DCDDDF" mask="url(#mask-9)" points="18.7935276 44.2069911 19.4861788 44.2069911 19.4861788 0.518068448 18.7935276 0.518068448"></polygon>
                        <polygon id="Fill-112" fill="#DBDDDE" mask="url(#mask-9)" points="19.3084187 44.2069911 20.0003138 44.2069911 20.0003138 0.518068448 19.3084187 0.518068448"></polygon>
                        <polygon id="Fill-113" fill="#DBDCDD" mask="url(#mask-9)" points="19.8227478 44.2069911 20.5146428 44.2069911 20.5146428 0.518068448 19.8227478 0.518068448"></polygon>
                        <polygon id="Fill-114" fill="#DADBDC" mask="url(#mask-9)" points="20.3370769 44.2069911 21.0297281 44.2069911 21.0297281 0.518068448 20.3370769 0.518068448"></polygon>
                        <polygon id="Fill-115" fill="#D9DADB" mask="url(#mask-9)" points="20.851968 44.2069911 21.5438631 44.2069911 21.5438631 0.518068448 20.851968 0.518068448"></polygon>
                        <polygon id="Fill-116" fill="#D8D9DB" mask="url(#mask-9)" points="21.3662971 44.2069911 22.0589483 44.2069911 22.0589483 0.518068448 21.3662971 0.518068448"></polygon>
                        <polygon id="Fill-117" fill="#D7D8DA" mask="url(#mask-9)" points="21.8811882 44.2069911 22.5730833 44.2069911 22.5730833 0.518068448 21.8811882 0.518068448"></polygon>
                        <polygon id="Fill-118" fill="#D6D8D9" mask="url(#mask-9)" points="22.3955173 44.2069911 23.0881685 44.2069911 23.0881685 0.518068448 22.3955173 0.518068448"></polygon>
                        <polygon id="Fill-119" fill="#D6D7D8" mask="url(#mask-9)" points="22.9104085 44.2069911 23.6023035 44.2069911 23.6023035 0.518068448 22.9104085 0.518068448"></polygon>
                        <polygon id="Fill-120" fill="#D5D6D8" mask="url(#mask-9)" points="23.4247375 44.2069911 24.1166326 44.2069911 24.1166326 0.518068448 23.4247375 0.518068448"></polygon>
                        <polygon id="Fill-121" fill="#D4D5D7" mask="url(#mask-9)" points="23.9390666 44.2069911 24.6317178 44.2069911 24.6317178 0.518068448 23.9390666 0.518068448"></polygon>
                        <polygon id="Fill-122" fill="#D3D5D6" mask="url(#mask-9)" points="24.4539578 44.2069911 25.1458528 44.2069911 25.1458528 0.518068448 24.4539578 0.518068448"></polygon>
                        <polygon id="Fill-123" fill="#D2D4D5" mask="url(#mask-9)" points="24.9682868 44.2069911 25.660938 44.2069911 25.660938 0.518068448 24.9682868 0.518068448"></polygon>
                        <polygon id="Fill-124" fill="#D1D3D4" mask="url(#mask-9)" points="25.483178 44.2069911 26.175073 44.2069911 26.175073 0.518068448 25.483178 0.518068448"></polygon>
                        <polygon id="Fill-125" fill="#D1D2D4" mask="url(#mask-9)" points="25.9980691 44.2069911 26.6907204 44.2069911 26.6907204 0.518068448 25.9980691 0.518068448"></polygon>
                        <polygon id="Fill-126" fill="#D0D1D3" mask="url(#mask-9)" points="26.5129603 44.2069911 27.2048554 44.2069911 27.2048554 0.518068448 26.5129603 0.518068448"></polygon>
                        <polygon id="Fill-127" fill="#CFD0D2" mask="url(#mask-9)" points="27.0272894 44.2069911 27.7191844 44.2069911 27.7191844 0.518068448 27.0272894 0.518068448"></polygon>
                        <polygon id="Fill-128" fill="#CED0D1" mask="url(#mask-9)" points="27.5416184 44.2069911 28.2342696 44.2069911 28.2342696 0.518068448 27.5416184 0.518068448"></polygon>
                        <polygon id="Fill-129" fill="#CDCFD1" mask="url(#mask-9)" points="28.0565096 44.2069911 28.7484046 44.2069911 28.7484046 0.518068448 28.0565096 0.518068448"></polygon>
                        <polygon id="Fill-130" fill="#CCCED0" mask="url(#mask-9)" points="28.5708387 44.2069911 29.2634899 44.2069911 29.2634899 0.518068448 28.5708387 0.518068448"></polygon>
                        <polygon id="Fill-131" fill="#CCCDCF" mask="url(#mask-9)" points="29.0857298 44.2069911 29.7776249 44.2069911 29.7776249 0.518068448 29.0857298 0.518068448"></polygon>
                        <polygon id="Fill-132" fill="#CBCCCE" mask="url(#mask-9)" points="29.6000589 44.2069911 30.2927101 44.2069911 30.2927101 0.518068448 29.6000589 0.518068448"></polygon>
                        <polygon id="Fill-133" fill="#CACCCD" mask="url(#mask-9)" points="30.11495 44.2069911 30.8068451 44.2069911 30.8068451 0.518068448 30.11495 0.518068448"></polygon>
                        <path d="M30.6291105,44.2067068 L30.6291105,0.517784108 L30.6291105,44.2067068 Z" id="Fill-134" fill="#CACCCD" mask="url(#mask-9)"></path>
                    </g>
                    <path d="M49.8747417,59.0218152 L49.8747417,37.5512617 C49.8747417,33.2366785 49.0624953,29.8820289 47.4380024,27.4839008 C49.9410705,25.2927727 52.8702166,24.1969243 56.220944,24.1969243 C59.5716713,24.1969243 61.8723804,24.9845476 63.1258818,26.5592254 C64.3776969,28.1350406 65.0044476,30.4984791 65.0044476,33.6478349 L65.0044476,56.1448577 C65.0044476,58.6794692 65.3422747,60.5111909 66.0196152,61.6411602 C66.6958314,62.7711295 67.8807556,63.3363984 69.5738257,63.3363984 C72.483298,63.3363984 75.2252621,62.069377 77.7985938,59.5353342 L77.7985938,35.8981058 C77.7985938,29.3042489 83.3286148,24.0371249 89.8260242,24.5517813 C91.122808,24.6541439 92.2430897,24.8099625 93.0294792,25.0180997 L93.0294792,61.5899789 C93.0294792,65.3574909 93.9766316,67.9250859 95.8731849,69.2944699 C95.6016866,70.66556 94.9923612,72.0861253 94.0452088,73.5578719 C93.0963701,75.0313245 92.1160533,76.1772168 91.1003236,76.998961 C85.6838484,76.7936671 81.8255373,74.3972451 79.5248282,69.8085576 C74.3792892,74.6719181 69.3709046,77.1018922 64.4968639,77.1018922 C59.6228232,77.1018922 55.966871,75.4419122 53.5301317,72.1196775 C51.0928303,68.79858 49.8747417,64.4328155 49.8747417,59.0218152" id="Fill-136" fill="#FEFEFE"></path>
                    <g id="Group-202" transform="translate(77.570940, 24.262209)">
                        <g id="Group-140">
                            <mask id="mask-11" fill="white">
                                <use xlink:href="#path-10"></use>
                            </mask>
                            <g id="Clip-139"></g>
                            <path d="M0.227541424,-0.219852099 L0.227541424,35.2732391 L0.227541424,-0.219852099 Z" id="Fill-138" fill="#FEFEFE" mask="url(#mask-11)"></path>
                        </g>
                        <mask id="mask-13" fill="white">
                            <use xlink:href="#path-12"></use>
                        </mask>
                        <g id="Clip-142"></g>
                        <polygon id="Fill-141" fill="#FEFEFE" mask="url(#mask-13)" points="0.227653845 35.2735803 0.574735621 35.2735803 0.574735621 -0.21951089 0.227653845 -0.21951089"></polygon>
                        <polygon id="Fill-143" fill="#FCFCFC" mask="url(#mask-13)" points="0.486223645 35.2735803 0.83330542 35.2735803 0.83330542 -0.21951089 0.486223645 -0.21951089"></polygon>
                        <polygon id="Fill-144" fill="#FBFBFB" mask="url(#mask-13)" points="0.744231337 35.2735803 1.09131311 35.2735803 1.09131311 -0.21951089 0.744231337 -0.21951089"></polygon>
                        <polygon id="Fill-145" fill="#F9F9F9" mask="url(#mask-13)" points="1.00280114 35.2735803 1.34988291 35.2735803 1.34988291 -0.21951089 1.00280114 -0.21951089"></polygon>
                        <polygon id="Fill-146" fill="#F8F8F8" mask="url(#mask-13)" points="1.26080883 35.2735803 1.6078906 35.2735803 1.6078906 -0.21951089 1.26080883 -0.21951089"></polygon>
                        <polygon id="Fill-147" fill="#F7F7F7" mask="url(#mask-13)" points="1.51937863 35.2735803 1.8664604 35.2735803 1.8664604 -0.21951089 1.51937863 -0.21951089"></polygon>
                        <polygon id="Fill-148" fill="#F6F6F6" mask="url(#mask-13)" points="1.77738632 35.2735803 2.12446809 35.2735803 2.12446809 -0.21951089 1.77738632 -0.21951089"></polygon>
                        <polygon id="Fill-149" fill="#F5F5F6" mask="url(#mask-13)" points="2.03595612 35.2735803 2.38303789 35.2735803 2.38303789 -0.21951089 2.03595612 -0.21951089"></polygon>
                        <polygon id="Fill-150" fill="#F4F4F5" mask="url(#mask-13)" points="2.29396381 35.2735803 2.64104559 35.2735803 2.64104559 -0.21951089 2.29396381 -0.21951089"></polygon>
                        <polygon id="Fill-151" fill="#F3F3F4" mask="url(#mask-13)" points="2.5519715 35.2735803 2.89980945 35.2735803 2.89980945 -0.21951089 2.5519715 -0.21951089"></polygon>
                        <polygon id="Fill-152" fill="#F2F3F3" mask="url(#mask-13)" points="2.8105413 35.2735803 3.15762308 35.2735803 3.15762308 -0.21951089 2.8105413 -0.21951089"></polygon>
                        <polygon id="Fill-153" fill="#F1F2F2" mask="url(#mask-13)" points="3.0691111 35.2735803 3.41619288 35.2735803 3.41619288 -0.21951089 3.0691111 -0.21951089"></polygon>
                        <polygon id="Fill-154" fill="#F0F1F1" mask="url(#mask-13)" points="3.32711879 35.2735803 3.67420057 35.2735803 3.67420057 -0.21951089 3.32711879 -0.21951089"></polygon>
                        <polygon id="Fill-155" fill="#F0F0F1" mask="url(#mask-13)" points="3.58568859 35.2735803 3.93277037 35.2735803 3.93277037 -0.21951089 3.58568859 -0.21951089"></polygon>
                        <polygon id="Fill-156" fill="#EFEFF0" mask="url(#mask-13)" points="3.84369628 35.2735803 4.19077806 35.2735803 4.19077806 -0.21951089 3.84369628 -0.21951089"></polygon>
                        <polygon id="Fill-157" fill="#EEEFEF" mask="url(#mask-13)" points="4.10226608 35.2735803 4.44934786 35.2735803 4.44934786 -0.21951089 4.10226608 -0.21951089"></polygon>
                        <polygon id="Fill-158" fill="#EDEEEE" mask="url(#mask-13)" points="4.36027377 35.2735803 4.70735555 35.2735803 4.70735555 -0.21951089 4.36027377 -0.21951089"></polygon>
                        <polygon id="Fill-159" fill="#ECEDEE" mask="url(#mask-13)" points="4.61884357 35.2735803 4.96592535 35.2735803 4.96592535 -0.21951089 4.61884357 -0.21951089"></polygon>
                        <polygon id="Fill-160" fill="#ECECED" mask="url(#mask-13)" points="4.87685127 35.2735803 5.22393304 35.2735803 5.22393304 -0.21951089 4.87685127 -0.21951089"></polygon>
                        <polygon id="Fill-161" fill="#EBEBEC" mask="url(#mask-13)" points="5.13542107 35.2735803 5.48250284 35.2735803 5.48250284 -0.21951089 5.13542107 -0.21951089"></polygon>
                        <polygon id="Fill-162" fill="#EAEBEB" mask="url(#mask-13)" points="5.39342876 35.2735803 5.74051053 35.2735803 5.74051053 -0.21951089 5.39342876 -0.21951089"></polygon>
                        <polygon id="Fill-163" fill="#E9EAEB" mask="url(#mask-13)" points="5.65199856 35.2735803 5.99908033 35.2735803 5.99908033 -0.21951089 5.65199856 -0.21951089"></polygon>
                        <polygon id="Fill-164" fill="#E8E9EA" mask="url(#mask-13)" points="5.91000625 35.2735803 6.25708802 35.2735803 6.25708802 -0.21951089 5.91000625 -0.21951089"></polygon>
                        <polygon id="Fill-165" fill="#E7E8E9" mask="url(#mask-13)" points="6.16857605 35.2735803 6.51565782 35.2735803 6.51565782 -0.21951089 6.16857605 -0.21951089"></polygon>
                        <polygon id="Fill-166" fill="#E6E7E8" mask="url(#mask-13)" points="6.42658374 35.2735803 6.77366551 35.2735803 6.77366551 -0.21951089 6.42658374 -0.21951089"></polygon>
                        <polygon id="Fill-167" fill="#E5E6E7" mask="url(#mask-13)" points="6.68515354 35.2735803 7.03223531 35.2735803 7.03223531 -0.21951089 6.68515354 -0.21951089"></polygon>
                        <polygon id="Fill-168" fill="#E5E6E6" mask="url(#mask-13)" points="6.94316123 35.2735803 7.29024301 35.2735803 7.29024301 -0.21951089 6.94316123 -0.21951089"></polygon>
                        <polygon id="Fill-169" fill="#E4E5E6" mask="url(#mask-13)" points="7.20173103 35.2735803 7.54881281 35.2735803 7.54881281 -0.21951089 7.20173103 -0.21951089"></polygon>
                        <polygon id="Fill-170" fill="#E3E4E5" mask="url(#mask-13)" points="7.45973872 35.2735803 7.8068205 35.2735803 7.8068205 -0.21951089 7.45973872 -0.21951089"></polygon>
                        <polygon id="Fill-171" fill="#E2E3E4" mask="url(#mask-13)" points="7.71774641 35.2735803 8.06482819 35.2735803 8.06482819 -0.21951089 7.71774641 -0.21951089"></polygon>
                        <polygon id="Fill-172" fill="#E1E2E3" mask="url(#mask-13)" points="7.97631621 35.2735803 8.32339799 35.2735803 8.32339799 -0.21951089 7.97631621 -0.21951089"></polygon>
                        <polygon id="Fill-173" fill="#E0E1E3" mask="url(#mask-13)" points="8.2343239 35.2735803 8.58140568 35.2735803 8.58140568 -0.21951089 8.2343239 -0.21951089"></polygon>
                        <polygon id="Fill-174" fill="#E0E1E2" mask="url(#mask-13)" points="8.4928937 35.2735803 8.83997548 35.2735803 8.83997548 -0.21951089 8.4928937 -0.21951089"></polygon>
                        <polygon id="Fill-175" fill="#DFE0E1" mask="url(#mask-13)" points="8.7509014 35.2735803 9.09798317 35.2735803 9.09798317 -0.21951089 8.7509014 -0.21951089"></polygon>
                        <polygon id="Fill-176" fill="#DEDFE0" mask="url(#mask-13)" points="9.00947119 35.2735803 9.35655297 35.2735803 9.35655297 -0.21951089 9.00947119 -0.21951089"></polygon>
                        <polygon id="Fill-177" fill="#DDDEDF" mask="url(#mask-13)" points="9.26747889 35.2735803 9.61456066 35.2735803 9.61456066 -0.21951089 9.26747889 -0.21951089"></polygon>
                        <polygon id="Fill-178" fill="#DCDDDF" mask="url(#mask-13)" points="9.52548658 35.2735803 9.87332452 35.2735803 9.87332452 -0.21951089 9.52548658 -0.21951089"></polygon>
                        <polygon id="Fill-179" fill="#DBDDDE" mask="url(#mask-13)" points="9.78461849 35.2735803 10.1317003 35.2735803 10.1317003 -0.21951089 9.78461849 -0.21951089"></polygon>
                        <polygon id="Fill-180" fill="#DBDCDD" mask="url(#mask-13)" points="10.0426262 35.2735803 10.389708 35.2735803 10.389708 -0.21951089 10.0426262 -0.21951089"></polygon>
                        <polygon id="Fill-181" fill="#DADBDC" mask="url(#mask-13)" points="10.301196 35.2735803 10.6482778 35.2735803 10.6482778 -0.21951089 10.301196 -0.21951089"></polygon>
                        <polygon id="Fill-182" fill="#D9DADB" mask="url(#mask-13)" points="10.5592037 35.2735803 10.9062854 35.2735803 10.9062854 -0.21951089 10.5592037 -0.21951089"></polygon>
                        <polygon id="Fill-183" fill="#D8D9DB" mask="url(#mask-13)" points="10.8177735 35.2735803 11.1648552 35.2735803 11.1648552 -0.21951089 10.8177735 -0.21951089"></polygon>
                        <polygon id="Fill-184" fill="#D7D8DA" mask="url(#mask-13)" points="11.0757812 35.2735803 11.4228629 35.2735803 11.4228629 -0.21951089 11.0757812 -0.21951089"></polygon>
                        <polygon id="Fill-185" fill="#D6D8D9" mask="url(#mask-13)" points="11.334351 35.2735803 11.6814327 35.2735803 11.6814327 -0.21951089 11.334351 -0.21951089"></polygon>
                        <polygon id="Fill-186" fill="#D6D7D8" mask="url(#mask-13)" points="11.5923587 35.2735803 11.9394404 35.2735803 11.9394404 -0.21951089 11.5923587 -0.21951089"></polygon>
                        <polygon id="Fill-187" fill="#D5D6D8" mask="url(#mask-13)" points="11.8509285 35.2735803 12.1980102 35.2735803 12.1980102 -0.21951089 11.8509285 -0.21951089"></polygon>
                        <polygon id="Fill-188" fill="#D4D5D7" mask="url(#mask-13)" points="12.1089361 35.2735803 12.4560179 35.2735803 12.4560179 -0.21951089 12.1089361 -0.21951089"></polygon>
                        <polygon id="Fill-189" fill="#D3D5D6" mask="url(#mask-13)" points="12.3669438 35.2735803 12.7140256 35.2735803 12.7140256 -0.21951089 12.3669438 -0.21951089"></polygon>
                        <polygon id="Fill-190" fill="#D2D4D5" mask="url(#mask-13)" points="12.6255136 35.2735803 12.9725954 35.2735803 12.9725954 -0.21951089 12.6255136 -0.21951089"></polygon>
                        <polygon id="Fill-191" fill="#D1D3D4" mask="url(#mask-13)" points="12.8835213 35.2735803 13.2306031 35.2735803 13.2306031 -0.21951089 12.8835213 -0.21951089"></polygon>
                        <polygon id="Fill-192" fill="#D1D2D4" mask="url(#mask-13)" points="13.1420911 35.2735803 13.4891729 35.2735803 13.4891729 -0.21951089 13.1420911 -0.21951089"></polygon>
                        <polygon id="Fill-193" fill="#D0D1D3" mask="url(#mask-13)" points="13.4000988 35.2735803 13.7471806 35.2735803 13.7471806 -0.21951089 13.4000988 -0.21951089"></polygon>
                        <polygon id="Fill-194" fill="#CFD0D2" mask="url(#mask-13)" points="13.6586686 35.2735803 14.0057504 35.2735803 14.0057504 -0.21951089 13.6586686 -0.21951089"></polygon>
                        <polygon id="Fill-195" fill="#CED0D1" mask="url(#mask-13)" points="13.9166763 35.2735803 14.2637581 35.2735803 14.2637581 -0.21951089 13.9166763 -0.21951089"></polygon>
                        <polygon id="Fill-196" fill="#CDCFD1" mask="url(#mask-13)" points="14.1752461 35.2735803 14.5223279 35.2735803 14.5223279 -0.21951089 14.1752461 -0.21951089"></polygon>
                        <polygon id="Fill-197" fill="#CCCED0" mask="url(#mask-13)" points="14.4332538 35.2735803 14.7803356 35.2735803 14.7803356 -0.21951089 14.4332538 -0.21951089"></polygon>
                        <polygon id="Fill-198" fill="#CCCDCF" mask="url(#mask-13)" points="14.6918236 35.2735803 15.0389054 35.2735803 15.0389054 -0.21951089 14.6918236 -0.21951089"></polygon>
                        <polygon id="Fill-199" fill="#CBCCCE" mask="url(#mask-13)" points="14.9498313 35.2735803 15.2969131 35.2735803 15.2969131 -0.21951089 14.9498313 -0.21951089"></polygon>
                        <polygon id="Fill-200" fill="#CACCCD" mask="url(#mask-13)" points="15.2084011 35.2735803 15.5554829 35.2735803 15.5554829 -0.21951089 15.2084011 -0.21951089"></polygon>
                        <polygon id="Fill-201" fill="#CACCCD" mask="url(#mask-13)" points="15.4664088 35.2730116 15.6304975 35.2730116 15.6304975 -0.220079571 15.4664088 -0.220079571"></polygon>
                    </g>
                    <path d="M98.8495481,72.5818446 C98.916439,70.9377876 99.373433,69.0890055 100.22053,67.0343608 C101.065941,64.9797161 102.030519,63.4050382 103.114263,62.3091898 C108.394146,65.1179056 113.09843,66.5208418 117.228802,66.5208418 C119.259137,66.5208418 120.833602,66.1614354 121.949949,65.4420538 C123.066858,64.7232409 123.626156,63.7820738 123.626156,62.617415 C123.626156,60.4262868 122.001101,58.7486777 118.752115,57.5834502 L113.167008,55.5288055 C104.637577,52.3800185 100.372861,47.2766746 100.372861,40.222186 C100.372861,35.08529 102.13226,31.0118275 105.652744,27.9978179 C109.172104,24.9849456 113.878075,23.4773721 119.766721,23.4773721 C122.676755,23.4773721 125.893139,23.8885285 129.413623,24.709704 C132.93242,25.5320168 135.877868,26.5255026 138.247716,27.6895928 C138.314045,29.5383749 137.925628,31.5588987 137.079655,33.7505955 C136.232558,35.942861 135.201089,37.483418 133.983001,38.3734039 C128.431057,35.8404984 123.7605,34.571771 119.970204,34.571771 C118.480055,34.571771 117.329981,34.915823 116.517735,35.5993777 C115.705489,36.2846384 115.299084,37.1757616 115.299084,38.2704726 C115.299084,39.98334 116.720656,41.3874135 119.5638,42.4821246 L125.758233,44.7420631 C134.760396,48.0984188 139.262884,53.5429712 139.262884,61.0762893 C139.262884,66.1455123 137.400619,70.1854226 133.678338,73.1982948 C129.954371,76.2111671 124.707652,77.7181719 117.939307,77.7181719 C111.169275,77.7181719 104.805647,76.0070106 98.8495481,72.5818446" id="Fill-203" fill="#FEFEFE"></path>
                    <g id="Group-269" transform="translate(98.368946, 61.795159)">
                        <g id="Group-207" transform="translate(0.000000, 7.392854)">
                            <mask id="mask-15" fill="white">
                                <use xlink:href="#path-14"></use>
                            </mask>
                            <g id="Clip-206"></g>
                            <path d="M0.480602562,-6.87905048 L0.480602562,7.52336612 L0.480602562,-6.87905048 Z" id="Fill-205" fill="#FEFEFE" mask="url(#mask-15)"></path>
                        </g>
                        <mask id="mask-17" fill="white">
                            <use xlink:href="#path-16"></use>
                        </mask>
                        <g id="Clip-209"></g>
                        <polygon id="Fill-208" fill="#FEFEFE" mask="url(#mask-17)" points="0.480602562 14.9165043 1.04546114 14.9165043 1.04546114 0.514087681 0.480602562 0.514087681"></polygon>
                        <polygon id="Fill-210" fill="#FCFCFC" mask="url(#mask-17)" points="0.900497433 14.9165043 1.46535601 14.9165043 1.46535601 0.514087681 0.900497433 0.514087681"></polygon>
                        <polygon id="Fill-211" fill="#FBFBFB" mask="url(#mask-17)" points="1.3203923 14.9165043 1.88525088 14.9165043 1.88525088 0.514087681 1.3203923 0.514087681"></polygon>
                        <polygon id="Fill-212" fill="#F9F9F9" mask="url(#mask-17)" points="1.74028717 14.9165043 2.30514575 14.9165043 2.30514575 0.514087681 1.74028717 0.514087681"></polygon>
                        <polygon id="Fill-213" fill="#F8F8F8" mask="url(#mask-17)" points="2.16018204 14.9165043 2.72504062 14.9165043 2.72504062 0.514087681 2.16018204 0.514087681"></polygon>
                        <polygon id="Fill-214" fill="#F7F7F7" mask="url(#mask-17)" points="2.58007691 14.9165043 3.14493549 14.9165043 3.14493549 0.514087681 2.58007691 0.514087681"></polygon>
                        <polygon id="Fill-215" fill="#F6F6F6" mask="url(#mask-17)" points="2.99997178 14.9165043 3.56483036 14.9165043 3.56483036 0.514087681 2.99997178 0.514087681"></polygon>
                        <polygon id="Fill-216" fill="#F5F5F6" mask="url(#mask-17)" points="3.42042876 14.9165043 3.98528734 14.9165043 3.98528734 0.514087681 3.42042876 0.514087681"></polygon>
                        <polygon id="Fill-217" fill="#F4F4F5" mask="url(#mask-17)" points="3.84032363 14.9165043 4.40518221 14.9165043 4.40518221 0.514087681 3.84032363 0.514087681"></polygon>
                        <polygon id="Fill-218" fill="#F3F3F4" mask="url(#mask-17)" points="4.2602185 14.9165043 4.82507708 14.9165043 4.82507708 0.514087681 4.2602185 0.514087681"></polygon>
                        <polygon id="Fill-219" fill="#F2F3F3" mask="url(#mask-17)" points="4.68011337 14.9165043 5.24497195 14.9165043 5.24497195 0.514087681 4.68011337 0.514087681"></polygon>
                        <polygon id="Fill-220" fill="#F1F2F2" mask="url(#mask-17)" points="5.10000825 14.9165043 5.66486682 14.9165043 5.66486682 0.514087681 5.10000825 0.514087681"></polygon>
                        <polygon id="Fill-221" fill="#F0F1F1" mask="url(#mask-17)" points="5.51990312 14.9165043 6.08476169 14.9165043 6.08476169 0.514087681 5.51990312 0.514087681"></polygon>
                        <polygon id="Fill-222" fill="#F0F0F1" mask="url(#mask-17)" points="5.93979799 14.9165043 6.50465656 14.9165043 6.50465656 0.514087681 5.93979799 0.514087681"></polygon>
                        <polygon id="Fill-223" fill="#EFEFF0" mask="url(#mask-17)" points="6.35969286 14.9165043 6.92455143 14.9165043 6.92455143 0.514087681 6.35969286 0.514087681"></polygon>
                        <polygon id="Fill-224" fill="#EEEFEF" mask="url(#mask-17)" points="6.77958773 14.9165043 7.3444463 14.9165043 7.3444463 0.514087681 6.77958773 0.514087681"></polygon>
                        <polygon id="Fill-225" fill="#EDEEEE" mask="url(#mask-17)" points="7.1994826 14.9165043 7.76434117 14.9165043 7.76434117 0.514087681 7.1994826 0.514087681"></polygon>
                        <polygon id="Fill-226" fill="#ECEDEE" mask="url(#mask-17)" points="7.61937747 14.9165043 8.18423604 14.9165043 8.18423604 0.514087681 7.61937747 0.514087681"></polygon>
                        <polygon id="Fill-227" fill="#ECECED" mask="url(#mask-17)" points="8.03927234 14.9165043 8.60413091 14.9165043 8.60413091 0.514087681 8.03927234 0.514087681"></polygon>
                        <polygon id="Fill-228" fill="#EBEBEC" mask="url(#mask-17)" points="8.45916721 14.9165043 9.02402578 14.9165043 9.02402578 0.514087681 8.45916721 0.514087681"></polygon>
                        <polygon id="Fill-229" fill="#EAEBEB" mask="url(#mask-17)" points="8.87906208 14.9165043 9.44392065 14.9165043 9.44392065 0.514087681 8.87906208 0.514087681"></polygon>
                        <polygon id="Fill-230" fill="#E9EAEB" mask="url(#mask-17)" points="9.29895695 14.9165043 9.86457169 14.9165043 9.86457169 0.514087681 9.29895695 0.514087681"></polygon>
                        <polygon id="Fill-231" fill="#E8E9EA" mask="url(#mask-17)" points="9.71941393 14.9165043 10.2842725 14.9165043 10.2842725 0.514087681 9.71941393 0.514087681"></polygon>
                        <polygon id="Fill-232" fill="#E7E8E9" mask="url(#mask-17)" points="10.1393088 14.9165043 10.7041674 14.9165043 10.7041674 0.514087681 10.1393088 0.514087681"></polygon>
                        <polygon id="Fill-233" fill="#E6E7E8" mask="url(#mask-17)" points="10.5592037 14.9165043 11.1240622 14.9165043 11.1240622 0.514087681 10.5592037 0.514087681"></polygon>
                        <polygon id="Fill-234" fill="#E5E6E7" mask="url(#mask-17)" points="10.9790985 14.9165043 11.5439571 14.9165043 11.5439571 0.514087681 10.9790985 0.514087681"></polygon>
                        <polygon id="Fill-235" fill="#E5E6E6" mask="url(#mask-17)" points="11.3989934 14.9165043 11.963852 14.9165043 11.963852 0.514087681 11.3989934 0.514087681"></polygon>
                        <polygon id="Fill-236" fill="#E4E5E6" mask="url(#mask-17)" points="11.8188883 14.9165043 12.3837469 14.9165043 12.3837469 0.514087681 11.8188883 0.514087681"></polygon>
                        <polygon id="Fill-237" fill="#E3E4E5" mask="url(#mask-17)" points="12.2393453 14.9165043 12.8042038 14.9165043 12.8042038 0.514087681 12.2393453 0.514087681"></polygon>
                        <polygon id="Fill-238" fill="#E2E3E4" mask="url(#mask-17)" points="12.6592401 14.9165043 13.2240987 14.9165043 13.2240987 0.514087681 12.6592401 0.514087681"></polygon>
                        <polygon id="Fill-239" fill="#E1E2E3" mask="url(#mask-17)" points="13.079135 14.9165043 13.6439936 14.9165043 13.6439936 0.514087681 13.079135 0.514087681"></polygon>
                        <polygon id="Fill-240" fill="#E0E1E3" mask="url(#mask-17)" points="13.4990299 14.9165043 14.0638884 14.9165043 14.0638884 0.514087681 13.4990299 0.514087681"></polygon>
                        <polygon id="Fill-241" fill="#E0E1E2" mask="url(#mask-17)" points="13.9189247 14.9165043 14.4837833 14.9165043 14.4837833 0.514087681 13.9189247 0.514087681"></polygon>
                        <polygon id="Fill-242" fill="#DFE0E1" mask="url(#mask-17)" points="14.3388196 14.9165043 14.9036782 14.9165043 14.9036782 0.514087681 14.3388196 0.514087681"></polygon>
                        <polygon id="Fill-243" fill="#DEDFE0" mask="url(#mask-17)" points="14.7587145 14.9165043 15.3235731 14.9165043 15.3235731 0.514087681 14.7587145 0.514087681"></polygon>
                        <polygon id="Fill-244" fill="#DDDEDF" mask="url(#mask-17)" points="15.1786094 14.9165043 15.7434679 14.9165043 15.7434679 0.514087681 15.1786094 0.514087681"></polygon>
                        <polygon id="Fill-245" fill="#DCDDDF" mask="url(#mask-17)" points="15.5985042 14.9165043 16.1633628 14.9165043 16.1633628 0.514087681 15.5985042 0.514087681"></polygon>
                        <polygon id="Fill-246" fill="#DBDDDE" mask="url(#mask-17)" points="16.0183991 14.9165043 16.5832577 14.9165043 16.5832577 0.514087681 16.0183991 0.514087681"></polygon>
                        <polygon id="Fill-247" fill="#DBDCDD" mask="url(#mask-17)" points="16.438294 14.9165043 17.0031525 14.9165043 17.0031525 0.514087681 16.438294 0.514087681"></polygon>
                        <polygon id="Fill-248" fill="#DADBDC" mask="url(#mask-17)" points="16.8581888 14.9165043 17.4230474 14.9165043 17.4230474 0.514087681 16.8581888 0.514087681"></polygon>
                        <polygon id="Fill-249" fill="#D9DADB" mask="url(#mask-17)" points="17.2780837 14.9165043 17.8429423 14.9165043 17.8429423 0.514087681 17.2780837 0.514087681"></polygon>
                        <polygon id="Fill-250" fill="#D8D9DB" mask="url(#mask-17)" points="17.6979786 14.9165043 18.2628371 14.9165043 18.2628371 0.514087681 17.6979786 0.514087681"></polygon>
                        <polygon id="Fill-251" fill="#D7D8DA" mask="url(#mask-17)" points="18.1178734 14.9165043 18.682732 14.9165043 18.682732 0.514087681 18.1178734 0.514087681"></polygon>
                        <polygon id="Fill-252" fill="#D6D8D9" mask="url(#mask-17)" points="18.5383304 14.9165043 19.103189 14.9165043 19.103189 0.514087681 18.5383304 0.514087681"></polygon>
                        <polygon id="Fill-253" fill="#D6D7D8" mask="url(#mask-17)" points="18.9582253 14.9165043 19.5230839 14.9165043 19.5230839 0.514087681 18.9582253 0.514087681"></polygon>
                        <polygon id="Fill-254" fill="#D5D6D8" mask="url(#mask-17)" points="19.3781202 14.9165043 19.9429787 14.9165043 19.9429787 0.514087681 19.3781202 0.514087681"></polygon>
                        <polygon id="Fill-255" fill="#D4D5D7" mask="url(#mask-17)" points="19.798015 14.9165043 20.3628736 14.9165043 20.3628736 0.514087681 19.798015 0.514087681"></polygon>
                        <polygon id="Fill-256" fill="#D3D5D6" mask="url(#mask-17)" points="20.2179099 14.9165043 20.7827685 14.9165043 20.7827685 0.514087681 20.2179099 0.514087681"></polygon>
                        <polygon id="Fill-257" fill="#D2D4D5" mask="url(#mask-17)" points="20.6378048 14.9165043 21.2026633 14.9165043 21.2026633 0.514087681 20.6378048 0.514087681"></polygon>
                        <polygon id="Fill-258" fill="#D1D3D4" mask="url(#mask-17)" points="21.0576996 14.9165043 21.6225582 14.9165043 21.6225582 0.514087681 21.0576996 0.514087681"></polygon>
                        <polygon id="Fill-259" fill="#D1D2D4" mask="url(#mask-17)" points="21.4775945 14.9165043 22.0424531 14.9165043 22.0424531 0.514087681 21.4775945 0.514087681"></polygon>
                        <polygon id="Fill-260" fill="#D0D1D3" mask="url(#mask-17)" points="21.8974894 14.9165043 22.462348 14.9165043 22.462348 0.514087681 21.8974894 0.514087681"></polygon>
                        <polygon id="Fill-261" fill="#CFD0D2" mask="url(#mask-17)" points="22.3173843 14.9165043 22.8822428 14.9165043 22.8822428 0.514087681 22.3173843 0.514087681"></polygon>
                        <polygon id="Fill-262" fill="#CED0D1" mask="url(#mask-17)" points="22.7372791 14.9165043 23.3021377 14.9165043 23.3021377 0.514087681 22.7372791 0.514087681"></polygon>
                        <polygon id="Fill-263" fill="#CDCFD1" mask="url(#mask-17)" points="23.157174 14.9165043 23.7220326 14.9165043 23.7220326 0.514087681 23.157174 0.514087681"></polygon>
                        <polygon id="Fill-264" fill="#CCCED0" mask="url(#mask-17)" points="23.5770689 14.9165043 24.1419274 14.9165043 24.1419274 0.514087681 23.5770689 0.514087681"></polygon>
                        <polygon id="Fill-265" fill="#CCCDCF" mask="url(#mask-17)" points="23.9969637 14.9165043 24.5618223 14.9165043 24.5618223 0.514087681 23.9969637 0.514087681"></polygon>
                        <polygon id="Fill-266" fill="#CBCCCE" mask="url(#mask-17)" points="24.4174207 14.9165043 24.9822793 14.9165043 24.9822793 0.514087681 24.4174207 0.514087681"></polygon>
                        <polygon id="Fill-267" fill="#CACCCD" mask="url(#mask-17)" points="24.8373156 14.9165043 25.4021742 14.9165043 25.4021742 0.514087681 24.8373156 0.514087681"></polygon>
                        <path d="M25.2569856,14.9162768 L25.2569856,0.513860208 L25.2569856,14.9162768 Z" id="Fill-268" fill="#CACCCD" mask="url(#mask-17)"></path>
                    </g>
                    <g id="Group-333" transform="translate(110.735327, 29.949019)">
                        <path d="M0.0669470938,0.0734167252 L0.0669470938,31.1268148 L0.0669470938,0.0734167252 Z" id="Fill-270" fill="#FEFEFE"></path>
                        <mask id="mask-19" fill="white">
                            <use xlink:href="#path-18"></use>
                        </mask>
                        <g id="Clip-273"></g>
                        <polygon id="Fill-272" fill="#FEFEFE" mask="url(#mask-19)" points="0.0674529912 31.1273267 0.716246375 31.1273267 0.716246375 0.0739285382 0.0674529912 0.0739285382"></polygon>
                        <polygon id="Fill-274" fill="#FCFCFC" mask="url(#mask-19)" points="0.54917977 31.1273267 1.19797315 31.1273267 1.19797315 0.0739285382 0.54917977 0.0739285382"></polygon>
                        <polygon id="Fill-275" fill="#FBFBFB" mask="url(#mask-19)" points="1.03203077 31.1273267 1.68082415 31.1273267 1.68082415 0.0739285382 1.03203077 0.0739285382"></polygon>
                        <polygon id="Fill-276" fill="#F9F9F9" mask="url(#mask-19)" points="1.51431965 31.1273267 2.16311304 31.1273267 2.16311304 0.0739285382 1.51431965 0.0739285382"></polygon>
                        <polygon id="Fill-277" fill="#F8F8F8" mask="url(#mask-19)" points="1.99660854 31.1273267 2.64540192 31.1273267 2.64540192 0.0739285382 1.99660854 0.0739285382"></polygon>
                        <polygon id="Fill-278" fill="#F7F7F7" mask="url(#mask-19)" points="2.47889743 31.1273267 3.12769081 31.1273267 3.12769081 0.0739285382 2.47889743 0.0739285382"></polygon>
                        <polygon id="Fill-279" fill="#F6F6F6" mask="url(#mask-19)" points="2.96118631 31.1273267 3.6099797 31.1273267 3.6099797 0.0739285382 2.96118631 0.0739285382"></polygon>
                        <polygon id="Fill-280" fill="#F5F5F6" mask="url(#mask-19)" points="3.44403731 31.1273267 4.09283069 31.1273267 4.09283069 0.0739285382 3.44403731 0.0739285382"></polygon>
                        <polygon id="Fill-281" fill="#F4F4F5" mask="url(#mask-19)" points="3.9263262 31.1273267 4.57511958 31.1273267 4.57511958 0.0739285382 3.9263262 0.0739285382"></polygon>
                        <polygon id="Fill-282" fill="#F3F3F4" mask="url(#mask-19)" points="4.40861508 31.1273267 5.05740847 31.1273267 5.05740847 0.0739285382 4.40861508 0.0739285382"></polygon>
                        <polygon id="Fill-283" fill="#F2F3F3" mask="url(#mask-19)" points="4.89090397 31.1273267 5.53969736 31.1273267 5.53969736 0.0739285382 4.89090397 0.0739285382"></polygon>
                        <polygon id="Fill-284" fill="#F1F2F2" mask="url(#mask-19)" points="5.37319286 31.1273267 6.02198624 31.1273267 6.02198624 0.0739285382 5.37319286 0.0739285382"></polygon>
                        <polygon id="Fill-285" fill="#F0F1F1" mask="url(#mask-19)" points="5.85548175 31.1273267 6.50427513 31.1273267 6.50427513 0.0739285382 5.85548175 0.0739285382"></polygon>
                        <polygon id="Fill-286" fill="#F0F0F1" mask="url(#mask-19)" points="6.33833274 31.1273267 6.98712613 31.1273267 6.98712613 0.0739285382 6.33833274 0.0739285382"></polygon>
                        <polygon id="Fill-287" fill="#EFEFF0" mask="url(#mask-19)" points="6.82062163 31.1273267 7.46941501 31.1273267 7.46941501 0.0739285382 6.82062163 0.0739285382"></polygon>
                        <polygon id="Fill-288" fill="#EEEFEF" mask="url(#mask-19)" points="7.30291052 31.1273267 7.9517039 31.1273267 7.9517039 0.0739285382 7.30291052 0.0739285382"></polygon>
                        <polygon id="Fill-289" fill="#EDEEEE" mask="url(#mask-19)" points="7.7851994 31.1273267 8.43399279 31.1273267 8.43399279 0.0739285382 7.7851994 0.0739285382"></polygon>
                        <polygon id="Fill-290" fill="#ECEDEE" mask="url(#mask-19)" points="8.26748829 31.1273267 8.91628168 31.1273267 8.91628168 0.0739285382 8.26748829 0.0739285382"></polygon>
                        <polygon id="Fill-291" fill="#ECECED" mask="url(#mask-19)" points="8.75033929 31.1273267 9.39913267 31.1273267 9.39913267 0.0739285382 8.75033929 0.0739285382"></polygon>
                        <polygon id="Fill-292" fill="#EBEBEC" mask="url(#mask-19)" points="9.23262817 31.1273267 9.88142156 31.1273267 9.88142156 0.0739285382 9.23262817 0.0739285382"></polygon>
                        <polygon id="Fill-293" fill="#EAEBEB" mask="url(#mask-19)" points="9.71491706 31.1273267 10.3637104 31.1273267 10.3637104 0.0739285382 9.71491706 0.0739285382"></polygon>
                        <polygon id="Fill-294" fill="#E9EAEB" mask="url(#mask-19)" points="10.1972059 31.1273267 10.8459993 31.1273267 10.8459993 0.0739285382 10.1972059 0.0739285382"></polygon>
                        <polygon id="Fill-295" fill="#E8E9EA" mask="url(#mask-19)" points="10.6794948 31.1273267 11.3282882 31.1273267 11.3282882 0.0739285382 10.6794948 0.0739285382"></polygon>
                        <polygon id="Fill-296" fill="#E7E8E9" mask="url(#mask-19)" points="11.1617837 31.1273267 11.8105771 31.1273267 11.8105771 0.0739285382 11.1617837 0.0739285382"></polygon>
                        <polygon id="Fill-297" fill="#E6E7E8" mask="url(#mask-19)" points="11.6446347 31.1273267 12.2934281 31.1273267 12.2934281 0.0739285382 11.6446347 0.0739285382"></polygon>
                        <polygon id="Fill-298" fill="#E5E6E7" mask="url(#mask-19)" points="12.1269236 31.1273267 12.775717 31.1273267 12.775717 0.0739285382 12.1269236 0.0739285382"></polygon>
                        <polygon id="Fill-299" fill="#E5E6E6" mask="url(#mask-19)" points="12.6092125 31.1273267 13.2580059 31.1273267 13.2580059 0.0739285382 12.6092125 0.0739285382"></polygon>
                        <polygon id="Fill-300" fill="#E4E5E6" mask="url(#mask-19)" points="13.0915014 31.1273267 13.7402948 31.1273267 13.7402948 0.0739285382 13.0915014 0.0739285382"></polygon>
                        <polygon id="Fill-301" fill="#E3E4E5" mask="url(#mask-19)" points="13.5737903 31.1273267 14.2225837 31.1273267 14.2225837 0.0739285382 13.5737903 0.0739285382"></polygon>
                        <polygon id="Fill-302" fill="#E2E3E4" mask="url(#mask-19)" points="14.0566413 31.1273267 14.7054346 31.1273267 14.7054346 0.0739285382 14.0566413 0.0739285382"></polygon>
                        <polygon id="Fill-303" fill="#E1E2E3" mask="url(#mask-19)" points="14.5389302 31.1273267 15.1877235 31.1273267 15.1877235 0.0739285382 14.5389302 0.0739285382"></polygon>
                        <polygon id="Fill-304" fill="#E0E1E3" mask="url(#mask-19)" points="15.021219 31.1273267 15.6700124 31.1273267 15.6700124 0.0739285382 15.021219 0.0739285382"></polygon>
                        <polygon id="Fill-305" fill="#E0E1E2" mask="url(#mask-19)" points="15.5035079 31.1273267 16.1523013 31.1273267 16.1523013 0.0739285382 15.5035079 0.0739285382"></polygon>
                        <polygon id="Fill-306" fill="#DFE0E1" mask="url(#mask-19)" points="15.9857968 31.1273267 16.6345902 31.1273267 16.6345902 0.0739285382 15.9857968 0.0739285382"></polygon>
                        <polygon id="Fill-307" fill="#DEDFE0" mask="url(#mask-19)" points="16.4686478 31.1273267 17.1174412 31.1273267 17.1174412 0.0739285382 16.4686478 0.0739285382"></polygon>
                        <polygon id="Fill-308" fill="#DDDEDF" mask="url(#mask-19)" points="16.9509367 31.1273267 17.5997301 31.1273267 17.5997301 0.0739285382 16.9509367 0.0739285382"></polygon>
                        <polygon id="Fill-309" fill="#DCDDDF" mask="url(#mask-19)" points="17.4332256 31.1273267 18.082019 31.1273267 18.082019 0.0739285382 17.4332256 0.0739285382"></polygon>
                        <polygon id="Fill-310" fill="#DBDDDE" mask="url(#mask-19)" points="17.9155145 31.1273267 18.5643079 31.1273267 18.5643079 0.0739285382 17.9155145 0.0739285382"></polygon>
                        <polygon id="Fill-311" fill="#DBDCDD" mask="url(#mask-19)" points="18.3978034 31.1273267 19.0465967 31.1273267 19.0465967 0.0739285382 18.3978034 0.0739285382"></polygon>
                        <polygon id="Fill-312" fill="#DADBDC" mask="url(#mask-19)" points="18.8800922 31.1273267 19.5288856 31.1273267 19.5288856 0.0739285382 18.8800922 0.0739285382"></polygon>
                        <polygon id="Fill-313" fill="#D9DADB" mask="url(#mask-19)" points="19.3629432 31.1273267 20.0117366 31.1273267 20.0117366 0.0739285382 19.3629432 0.0739285382"></polygon>
                        <polygon id="Fill-314" fill="#D8D9DB" mask="url(#mask-19)" points="19.8452321 31.1273267 20.4940255 31.1273267 20.4940255 0.0739285382 19.8452321 0.0739285382"></polygon>
                        <polygon id="Fill-315" fill="#D7D8DA" mask="url(#mask-19)" points="20.327521 31.1273267 20.9763144 31.1273267 20.9763144 0.0739285382 20.327521 0.0739285382"></polygon>
                        <polygon id="Fill-316" fill="#D6D8D9" mask="url(#mask-19)" points="20.8098099 31.1273267 21.4586033 31.1273267 21.4586033 0.0739285382 20.8098099 0.0739285382"></polygon>
                        <polygon id="Fill-317" fill="#D6D7D8" mask="url(#mask-19)" points="21.2920988 31.1273267 21.9408922 31.1273267 21.9408922 0.0739285382 21.2920988 0.0739285382"></polygon>
                        <polygon id="Fill-318" fill="#D5D6D8" mask="url(#mask-19)" points="21.7749498 31.1273267 22.4237432 31.1273267 22.4237432 0.0739285382 21.7749498 0.0739285382"></polygon>
                        <polygon id="Fill-319" fill="#D4D5D7" mask="url(#mask-19)" points="22.2572387 31.1273267 22.9060321 31.1273267 22.9060321 0.0739285382 22.2572387 0.0739285382"></polygon>
                        <polygon id="Fill-320" fill="#D3D5D6" mask="url(#mask-19)" points="22.7395276 31.1273267 23.3883209 31.1273267 23.3883209 0.0739285382 22.7395276 0.0739285382"></polygon>
                        <polygon id="Fill-321" fill="#D2D4D5" mask="url(#mask-19)" points="23.2218164 31.1273267 23.8706098 31.1273267 23.8706098 0.0739285382 23.2218164 0.0739285382"></polygon>
                        <polygon id="Fill-322" fill="#D1D3D4" mask="url(#mask-19)" points="23.7041053 31.1273267 24.3528987 31.1273267 24.3528987 0.0739285382 23.7041053 0.0739285382"></polygon>
                        <polygon id="Fill-323" fill="#D1D2D4" mask="url(#mask-19)" points="24.1863942 31.1273267 24.8351876 31.1273267 24.8351876 0.0739285382 24.1863942 0.0739285382"></polygon>
                        <polygon id="Fill-324" fill="#D0D1D3" mask="url(#mask-19)" points="24.6692452 31.1273267 25.3180386 31.1273267 25.3180386 0.0739285382 24.6692452 0.0739285382"></polygon>
                        <polygon id="Fill-325" fill="#CFD0D2" mask="url(#mask-19)" points="25.1515341 31.1273267 25.8003275 31.1273267 25.8003275 0.0739285382 25.1515341 0.0739285382"></polygon>
                        <polygon id="Fill-326" fill="#CED0D1" mask="url(#mask-19)" points="25.633823 31.1273267 26.2826164 31.1273267 26.2826164 0.0739285382 25.633823 0.0739285382"></polygon>
                        <polygon id="Fill-327" fill="#CDCFD1" mask="url(#mask-19)" points="26.1161119 31.1273267 26.7649053 31.1273267 26.7649053 0.0739285382 26.1161119 0.0739285382"></polygon>
                        <polygon id="Fill-328" fill="#CCCED0" mask="url(#mask-19)" points="26.5984008 31.1273267 27.2471941 31.1273267 27.2471941 0.0739285382 26.5984008 0.0739285382"></polygon>
                        <polygon id="Fill-329" fill="#CCCDCF" mask="url(#mask-19)" points="27.0812518 31.1273267 27.7300451 31.1273267 27.7300451 0.0739285382 27.0812518 0.0739285382"></polygon>
                        <polygon id="Fill-330" fill="#CBCCCE" mask="url(#mask-19)" points="27.5635406 31.1273267 28.212334 31.1273267 28.212334 0.0739285382 27.5635406 0.0739285382"></polygon>
                        <polygon id="Fill-331" fill="#CACCCD" mask="url(#mask-19)" points="28.0458295 31.1273267 28.6946229 31.1273267 28.6946229 0.0739285382 28.0458295 0.0739285382"></polygon>
                        <polygon id="Fill-332" fill="#CACCCD" mask="url(#mask-19)" points="28.5281184 31.126758 28.543998 31.126758 28.543998 0.0733598571 28.5281184 0.0733598571"></polygon>
                    </g>
                </g>
            </g>
        </g>
    </g>
</svg>