<svg width="27px" height="26px" viewBox="0 0 27 26" version="1.1" xmlns="http://www.w3.org/2000/svg" xmlns:xlink="http://www.w3.org/1999/xlink">
    <!-- Generator: Sketch 47.1 (45422) - http://www.bohemiancoding.com/sketch -->
    <desc>Created with Sketch.</desc>
    <defs>
        <path d="M4.80901311,27.0534951 L4.08906027,26.3335423 L4.08906027,26.3335423 C3.15460877,25.3990908 1.63956354,25.3990908 0.705112034,26.3335423 L0.705112034,26.3335423 L0.705112034,26.3335423 C-0.22933947,27.2679938 -0.22933947,28.783039 0.705112034,29.7174905 L1.42506487,30.4374434 L1.42054098,30.4419673 L4.80448922,33.8259155 L4.80901311,33.8213916 L4.813537,33.8259155 L8.19748524,30.4419673 L8.19296135,30.4374434 L8.91291418,29.7174905 C9.84736569,28.783039 9.84736569,27.2679938 8.91291418,26.3335423 L8.91291418,26.3335423 L8.91291418,26.3335423 C7.97846268,25.3990908 6.46341745,25.3990908 5.52896595,26.3335423 L5.52896595,26.3335423 L4.80901311,27.0534951 Z" id="path-1"></path>
    </defs>
    <g id="Page-1" stroke="none" stroke-width="1" fill="none" fill-rule="evenodd">
        <g id="Home" transform="translate(-118.000000, -328.000000)">
            <g id="1" transform="translate(8.000000, 136.000000)">
                <g id="Arrow" transform="translate(123.880746, 204.615883) rotate(-134.000000) translate(-123.880746, -204.615883) translate(118.880746, 187.615883)">
                    <path d="M4.85165125,3.31976993 L7.29589063,1.28616277 L7.29589063,1.28616277 C7.55062373,1.07422483 7.92893535,1.10891717 8.14087328,1.36365026 C8.23054203,1.4714252 8.27963821,1.60719827 8.27963821,1.74739785 L8.27963821,6.24705266 L8.27963821,6.24705266 C8.27963821,6.42528586 8.20039813,6.59429347 8.06338579,6.70828773 L4.85165125,9.38045087 L4.85165125,3.31976993 Z" id="Rectangle-14" fill="#D3C81B"></path>
                    <path d="M1.34997406,3.31976993 L3.79421344,1.28616277 L3.79421344,1.28616277 C4.04894654,1.07422483 4.42725816,1.10891717 4.63919609,1.36365026 C4.72886484,1.4714252 4.77796102,1.60719827 4.77796102,1.74739785 L4.77796102,6.24705266 L4.77796102,6.24705266 C4.77796102,6.42528586 4.69872094,6.59429347 4.5617086,6.70828773 L1.34997406,9.38045087 L1.34997406,3.31976993 Z" id="Rectangle-14" fill="#D3C81B" transform="translate(3.063968, 5.263917) scale(-1, 1) translate(-3.063968, -5.263917) "></path>
                    <path d="M4.81480614,1.06396754 L4.81480614,27.3411327" id="Line-4" stroke="#D2CA1B" stroke-width="2" stroke-linecap="square"></path>
                    <g id="Combined-Shape">
                        <use fill="#DF1D33" fill-rule="evenodd" xlink:href="#path-1"></use>
                        <path stroke="#DF1D33" stroke-width="1" d="M4.80901311,33.1233326 L7.49037845,30.4419673 L7.48585457,30.4374434 L8.55936079,29.3639371 C9.29855015,28.6247478 9.29855015,27.426285 8.55936079,26.6870957 C7.82017144,25.9479063 6.62170869,25.9479063 5.88251934,26.6870957 L4.80901311,27.7606019 L3.73550688,26.6870957 C2.99631752,25.9479063 1.79785478,25.9479063 1.05866542,26.6870957 C0.319476067,27.426285 0.319476067,28.6247478 1.05866542,29.3639371 L2.13217165,30.4374434 L2.12764776,30.4419673 L4.80901311,33.1233326 Z M4.80901311,33.1233326 L5.15804261,33.4723621 L4.80448922,33.8259155 L4.45093583,33.4723621 L4.45545972,33.4678382 L5.1625665,33.4678382 L5.16709039,33.4723621 L4.813537,33.8259155 L4.45998361,33.4723621 L4.80901311,33.1233326 Z"></path>
                    </g>
                </g>
            </g>
        </g>
    </g>
</svg>