<?xml version="1.0" encoding="UTF-8" standalone="no"?>
<svg width="21px" height="19px" viewBox="0 0 21 19" version="1.1" xmlns="http://www.w3.org/2000/svg" xmlns:xlink="http://www.w3.org/1999/xlink">
    <!-- Generator: Sketch 47.1 (45422) - http://www.bohemiancoding.com/sketch -->
    <title>Take Photo</title>
    <desc>Created with Sketch.</desc>
    <defs></defs>
    <g id="Page-1" stroke="none" stroke-width="1" fill="none" fill-rule="evenodd">
        <g id="Message" transform="translate(-18.000000, -329.000000)" stroke="#9B9B9B">
            <g id="Take-Photo" transform="translate(19.000000, 330.000000)">
                <path d="M13.8328283,1.61904762 C13.2822952,0.652071055 12.2422973,-6.63110669e-16 11.05,-4.4408921e-16 L11.05,0 L7.95,0 L7.95,-4.4408921e-16 C6.75770271,-2.2506775e-16 5.71770477,0.652071055 5.16717173,1.61904762 L4.8,1.61904762 L4.8,1.61904762 C2.1490332,1.61904762 1.45170704e-15,3.76808082 1.77635684e-15,6.41904762 L0,6.41904762 L1.77635684e-15,12.2 C2.10100664e-15,14.8509668 2.1490332,17 4.8,17 L14.2,17 C16.8509668,17 19,14.8509668 19,12.2 L19,12.2 L19,6.41904762 C19,3.76808082 16.8509668,1.61904762 14.2,1.61904762 L14.2,1.61904762 L13.8328283,1.61904762 Z" id="Combined-Shape"></path>
                <ellipse id="Oval-4" cx="9.5" cy="8.9047619" rx="4.75" ry="4.85714286"></ellipse>
            </g>
        </g>
    </g>
</svg>